<svg width="233" height="185" viewBox="0 0 233 185" fill="none" xmlns="http://www.w3.org/2000/svg">
<path d="M145.734 184.22C177.03 184.22 202.4 172.046 202.4 157.027C202.4 142.009 177.03 129.834 145.734 129.834C114.439 129.834 89.0684 142.009 89.0684 157.027C89.0684 172.046 114.439 184.22 145.734 184.22Z" fill="#DCECEB"/>
<path d="M80.1571 169.63L13.6519 135.39C12.8276 134.984 12.3125 134.171 12.3125 133.358V75.1774C12.3125 73.8675 13.4973 72.8286 14.9912 72.8286C16.4852 72.8286 17.67 73.8675 17.67 75.1774V130.647C17.67 131.506 18.1851 132.274 19.0094 132.68L74.748 161.364C76.551 162.267 78.8176 161.138 78.8176 159.331V107.339C78.8176 106.029 80.0025 104.99 81.4964 104.99C82.9903 104.99 84.1752 106.029 84.1752 107.339V167.597C84.1752 169.404 81.9085 170.579 80.1571 169.63Z" fill="#184863"/>
<path d="M207.706 101.286L141.201 67.0465C140.376 66.6399 139.861 65.8269 139.861 65.0138V6.83352C139.861 5.52356 141.046 4.48462 142.54 4.48462C144.034 4.48462 145.219 5.52356 145.219 6.83352V62.3035C145.219 63.1618 145.734 63.9297 146.558 64.3362L202.297 93.0198C204.1 93.9232 206.367 92.794 206.367 90.9871V38.9953C206.367 37.6853 207.551 36.6464 209.045 36.6464C210.539 36.6464 211.724 37.6853 211.724 38.9953V99.2534C211.724 101.06 209.457 102.19 207.706 101.286Z" fill="#184863"/>
<path d="M0 74.2287L145.013 0.148193L232.433 44.4158L86.7504 118.135L0 74.2287Z" fill="#D9E3FF"/>
<path d="M0 74.2287V78.2941L87.1625 121.749L233 48.2102L232.433 44.4158L86.7504 118.135L0 74.2287Z" fill="#BDCBE0"/>
<path d="M148.877 42.5187L176.334 28.1543L195.446 37.9564L167.731 52.2304L148.877 42.5187Z" fill="white"/>
<path d="M152.689 54.3084L180.147 39.9439L199.207 49.7461L171.492 64.0202L152.689 54.3084Z" fill="white"/>
<path d="M73.0472 84.1193L65.8867 57.6039L102.874 37.7737L110.344 65.2378L73.0472 84.1193Z" fill="#184863"/>
<path d="M73.0469 84.1211L94.3224 94.917L131.98 76.5776L110.343 65.2396L73.0469 84.1211Z" fill="#245970"/>
<path d="M68.2559 58.4188L74.18 81.3205L107.871 64.291L101.895 40.9828L68.2559 58.4188Z" fill="#3EBAFF"/>
<path d="M102.874 37.7758L101.586 37.6854L64.9082 57.5154L65.887 57.6057L102.874 37.7758Z" fill="#306982"/>
<path d="M64.9082 57.5154L72.3264 85.2504L94.5292 95.9559L94.3232 94.917L73.0475 84.1211L65.887 57.6057L64.9082 57.5154Z" fill="#2E8DB7"/>
<path d="M94.5303 95.956L131.981 77.752V76.5776L94.3242 94.917L94.5303 95.956Z" fill="#306982"/>
<path d="M76.9629 83.8501L110.241 67.2723L111.735 68.0403L78.1992 84.6181L76.9629 83.8501Z" fill="#BDCBE0"/>
<path d="M79.2305 85.2956L91.3879 91.2582L122.554 75.8999L110.088 69.6663L79.2305 85.2956Z" fill="#BDCBE0"/>
<path d="M106.018 85.4312L108.336 86.5604L114.208 83.6696L111.839 82.4951L106.018 85.4312Z" fill="#BDCBE0"/>
<path opacity="0.2" d="M74.1797 81.3204L89.9946 47.0808L94.1673 45.0029L79.0736 78.6553L74.1797 81.3204Z" fill="white"/>
<path opacity="0.2" d="M82.6289 77.1648L96.8983 43.5124L98.5983 42.7445L84.947 76.0355L82.6289 77.1648Z" fill="white"/>
<path d="M187.049 118.406C186.585 123.194 185.091 124.911 183.906 125.543C182.721 126.175 181.588 125.769 181.537 125.769V125.814L179.528 127.395C179.528 127.395 179.837 127.485 180.249 127.576C166.7 137.468 151.813 141.579 151.658 141.624L152.431 143.883C153.152 143.702 169.688 139.14 184.215 127.666C184.473 127.576 184.782 127.485 185.04 127.305C187.409 126.085 188.852 123.149 189.315 118.587L187.049 118.406Z" fill="#4D4D4D"/>
<path d="M123.839 124.369C123.427 126.085 146.866 140.314 149.185 141.579C151.503 142.844 176.333 132.138 181.793 125.859C181.793 125.859 172.727 115.831 158.354 112.263C157.582 112.082 156.706 112.082 155.933 112.353C150.163 114.25 124.2 122.833 123.839 124.369Z" fill="#666666"/>
<path d="M191.376 102.777L191.324 104.945L190.964 116.915C190.964 116.915 153.049 135.707 148.773 136.294L149.186 121.839H149.237C149.237 121.839 149.237 121.839 149.289 121.839C150.886 121.161 187.564 106.887 191.376 102.777Z" fill="#BCBCBC"/>
<path d="M147.537 105.984C147.537 105.984 142.025 104.403 138.882 104.493C135.74 104.584 134.813 109.643 134.813 111.404C134.813 113.166 134.246 119.716 134.246 119.716C134.246 119.716 140.325 122.471 141.767 121.703C143.21 120.936 142.643 118.722 143.673 116.554L147.176 118.541L147.537 105.984Z" fill="#70344B"/>
<path d="M116.834 72.1056C116.834 72.1056 116.061 72.5573 114.825 72.6929C113.589 72.8284 111.94 73.3253 112.043 74.0028C112.095 74.6804 114.361 74.5901 115.701 74.2287C116.989 73.8673 118.225 73.8221 119.667 73.8221C121.11 73.8221 123.685 73.6415 125.334 73.2349C126.982 72.8284 135.328 74.5449 137.749 75.5839C140.17 76.6228 147.125 78.0231 149.906 77.9328C152.688 77.7973 166.236 79.1072 167.627 78.3845C169.07 77.6617 168.812 73.8221 167.576 73.5963C166.339 73.3704 152.585 71.2022 150.679 71.3829C148.773 71.5636 146.918 72.0605 145.991 71.6539C145.064 71.2474 133.525 70.5246 128.116 70.0729C122.707 69.6212 120.852 68.9436 118.689 68.763C116.525 68.5823 111.013 68.3564 110.292 68.6274C109.57 68.8985 110.24 68.9888 110.704 69.2598C111.167 69.5309 109.364 68.9888 109.416 69.7116C109.467 70.4343 108.643 69.9826 109.158 70.5246C109.622 71.0215 115.752 70.2988 116.834 72.1056Z" fill="#F4A995"/>
<path d="M116.731 144.153C116.731 144.153 118.38 142.527 118.174 140.585C117.968 138.597 122.965 140.585 123.84 140.856C124.716 141.127 124.716 143.431 125.489 145.237C126.313 146.999 114.31 149.8 116.731 144.153Z" fill="#FBB198"/>
<path d="M172.624 130.376C170.152 136.068 164.588 135.39 157.943 137.694C155.264 138.598 151.349 137.92 147.434 136.7C141.716 134.848 135.946 131.822 134.04 130.873C131.052 129.383 125.952 127.079 125.18 126.718C125.128 126.672 125.077 126.672 125.077 126.672C124.149 128.389 125.077 130.422 125.334 133.493C125.592 136.565 124.664 141.579 124.664 141.579C123.222 142.618 121.78 142.889 120.543 142.753C118.174 142.482 116.474 140.721 116.628 139.772C116.886 138.281 116.113 138.191 116.216 136.113C116.371 134.08 113.074 124.278 112.713 122.2C112.301 120.168 110.498 115.154 116.474 112.85C122.449 110.592 130.228 114.431 132.701 115.244C135.173 116.057 145.064 118.677 145.064 118.677C153.77 125.498 174.84 120.032 174.84 120.032C174.84 120.032 174.84 120.077 174.84 120.168C174.84 120.936 174.84 125.227 172.624 130.376Z" fill="#91415C"/>
<path d="M124.561 152.013C122.604 152.284 117.452 150.206 115.289 149.8C113.125 149.393 109.416 150.071 107.974 147.993C107.665 147.586 107.51 147.18 107.407 146.773C106.943 145.147 107.768 143.702 107.768 143.702C110.086 141.985 114.516 142.753 115.546 142.753C116.577 142.753 117.865 142.572 117.71 143.611C117.504 144.65 116.731 144.018 116.834 145.328C116.937 146.593 122.965 147.044 123.583 146.096C124.149 145.147 125.54 143.611 126.416 144.967C127.137 146.051 127.498 146.412 127.91 147.451C128.013 147.722 128.116 147.993 128.167 148.4C128.631 150.297 126.519 151.787 124.561 152.013Z" fill="#164159"/>
<path d="M133.422 98.0792C133.422 98.0792 132.701 98.1696 131.567 98.3051C128.013 98.7116 120.286 99.6151 117.607 99.7957C114.104 100.067 112.352 100.157 110.601 98.6665C109.056 97.4017 102.204 92.7039 100.453 90.1743C100.401 90.1291 100.401 90.0839 100.35 90.0388C100.35 90.0388 100.401 90.0839 100.401 90.1743C100.556 90.4001 100.813 90.8067 100.813 90.8067C100.813 90.8067 100.556 90.626 100.092 90.355C99.3708 89.8581 98.186 89.1353 97.2072 88.6385C96.8466 88.4578 96.6406 88.2319 96.5376 87.9157L93.9103 86.3347C93.9103 86.3347 92.5709 85.0248 93.3436 84.4827C94.1164 83.9406 94.5285 85.2054 95.6103 85.9282C95.9194 86.1089 96.3315 86.2444 96.7436 86.3799C96.7436 86.3347 96.7951 86.3347 96.7951 86.2896L95.2497 84.9344C95.2497 84.9344 93.4467 83.3986 94.0649 82.6758C94.683 81.9531 96.0739 83.6244 96.5891 84.3472C96.8981 84.7537 97.3618 84.9344 97.7739 85.1603C97.8254 85.1151 97.8254 85.1151 97.8769 85.0699L96.28 83.3986C96.28 83.3986 94.6315 81.7272 95.3527 81.0497C96.0739 80.3721 97.2587 82.1338 97.7224 82.9017C98.1345 83.5793 98.9587 83.7148 99.3193 84.2117C99.4223 84.1213 99.5769 84.031 99.6799 83.8955L97.8769 81.9983C97.8769 81.9983 96.2285 80.3269 96.9497 79.6494C97.6709 78.9718 98.8557 80.7335 99.3193 81.5014C99.6284 81.9983 100.195 82.2241 100.556 82.4952C100.607 82.4048 100.607 82.3597 100.659 82.3145C100.659 82.3145 101.792 81.9531 102.462 82.7662C103.131 83.5793 103.647 85.1151 103.544 86.0637C103.544 86.1089 103.544 86.1089 103.492 86.154C103.904 86.6509 104.316 87.0575 104.677 87.2833C104.78 87.3285 104.831 87.4188 104.883 87.5092C106.737 88.2771 111.837 92.6587 115.392 92.5683C118.998 92.478 129.816 89.7677 129.816 89.7677C135.689 92.6135 133.422 98.0792 133.422 98.0792Z" fill="#FFB298"/>
<path d="M124.563 152.013C122.605 152.284 117.454 150.206 115.29 149.8C113.126 149.393 109.417 150.071 107.975 147.993C107.666 147.587 107.511 147.18 107.408 146.773C107.717 147.18 108.387 147.722 110.035 147.993C112.972 148.4 115.805 148.083 118.999 149.032C122.193 149.981 124.15 150.929 125.644 150.071C126.881 149.348 127.808 148.851 127.911 147.496C128.014 147.767 128.117 148.038 128.169 148.445C128.632 150.297 126.52 151.787 124.563 152.013Z" fill="#67A4C3"/>
<path d="M158.561 75.132C155.727 76.5775 149.803 78.2037 149.803 78.2037C149.803 78.2037 147.742 75.4031 146.764 72.8283C145.939 73.009 145.321 73.0994 145.064 72.9639C143.982 72.3766 143.312 73.2349 142.282 72.738C141.252 72.2411 139.552 68.8985 138.47 66.0527C137.388 63.207 137.027 57.6058 137.027 57.6058C138.83 48.933 146.506 50.5591 149.545 51.0108C152.585 51.4173 155.573 54.0824 156.397 57.7413C157.015 60.6322 156.449 65.0138 155.933 67.4078C155.779 68.0854 155.624 68.5823 155.521 68.8533C155.521 68.8533 158.252 72.1056 159.9 73.5511C160.312 73.9576 159.694 74.5448 158.561 75.132Z" fill="#FEAE93"/>
<path d="M176.9 90.3096C176.9 93.562 174.736 97.9887 174.942 102.28C175.148 106.571 173.861 105.578 174.015 109.191C174.221 112.805 174.479 113.934 175.818 118.858C176.024 119.626 175.612 120.484 174.736 121.387C173.654 122.472 171.8 123.601 169.533 124.504C169.379 124.549 169.276 124.595 169.121 124.685C161.549 127.666 149.34 128.75 142.488 121.794C142.488 121.794 144.034 115.109 143.467 111.179C142.9 107.384 142.54 101.286 141.818 98.2598C141.767 98.1243 141.767 98.0339 141.715 97.8984C141.715 97.8984 137.44 99.6149 132.134 99.7956C132.134 99.7956 131 99.4342 129.919 98.4856C129.61 98.2146 129.3 97.8984 129.043 97.4919C128.631 96.9498 128.322 96.3174 128.167 95.5043C127.807 93.9233 128.116 91.8003 129.816 88.9997C129.816 88.9997 133.731 87.1928 139.346 84.7988C145.012 82.4047 147.743 80.1913 148.928 77.4359C150.112 74.6804 154.182 75.0418 157.685 73.6867C161.188 72.3315 158.664 73.0091 163.352 73.1898C165.052 73.235 166.597 73.2801 168.091 73.4156C170.667 73.6415 172.933 74.1384 175.045 75.5838C178.445 77.8424 176.9 87.0573 176.9 90.3096Z" fill="#F4A129"/>
<path opacity="0.2" d="M176.899 90.3095C176.899 93.5618 174.735 97.9886 174.941 102.28C175.147 106.571 173.86 105.577 174.014 109.191C174.22 112.805 174.478 113.934 175.817 118.858C176.332 120.664 173.499 122.968 169.172 124.685C169.481 122.742 170.099 117.051 168.399 114.069C166.338 110.411 167.626 102.235 167.987 99.0275C168.399 95.8204 171.644 90.5805 171.49 84.3018C171.387 78.7457 168.708 74.319 168.09 73.4156C170.666 73.6414 172.932 74.1383 175.044 75.5838C178.444 77.8423 176.899 87.0572 176.899 90.3095Z" fill="#B77620"/>
<path opacity="0.2" d="M141.922 98.2599C141.87 98.1243 141.87 98.034 141.819 97.8985C141.819 97.8985 137.543 99.615 132.237 99.7957C132.237 99.7957 130.331 99.1633 129.146 97.4919C129.816 97.5371 133.474 97.763 135.946 97.2209C138.677 96.6337 141.87 94.8268 143.57 94.4655C144.961 94.1944 143.055 96.6789 141.922 98.2599Z" fill="#B77620"/>
<path d="M124.664 141.534C123.222 142.573 121.779 142.844 120.543 142.708C120.646 141.76 121.676 134.035 121.316 130.964C120.904 127.666 120.285 125.363 120.904 123.917C121.47 122.607 123.479 125.453 125.179 126.718C125.128 126.672 125.076 126.672 125.076 126.672C124.149 128.389 125.076 130.422 125.334 133.493C125.54 136.52 124.664 141.534 124.664 141.534Z" fill="#70344B"/>
<path d="M174.788 121.387C174.685 123.194 174.273 126.537 172.624 130.376C170.152 136.068 164.588 135.39 157.943 137.694C155.264 138.597 151.349 137.92 147.434 136.7C149.031 136.791 157.273 136.971 161.446 133.629C166.133 129.879 166.133 131.099 167.936 129.292C168.967 128.253 169.43 126.175 169.636 124.549C171.903 123.555 173.706 122.471 174.788 121.387Z" fill="#70344B"/>
<path d="M100.866 90.7986C100.866 90.7986 100.608 90.6202 100.145 90.3525L100.454 90.1741C100.608 90.3971 100.866 90.7986 100.866 90.7986Z" fill="#E59D89"/>
<path opacity="0.2" d="M130.022 98.4856C126.107 98.9374 119.926 99.6149 117.607 99.7956C114.104 100.067 112.353 100.157 110.601 98.6663C109.056 97.4015 102.205 92.7037 100.453 90.1741L100.968 89.9031C100.968 89.9031 108.953 95.2785 110.705 96.0464C112.456 96.8143 111.683 95.5495 114.001 96.1367C116.114 96.6788 124.459 95.8657 128.219 95.5495C128.374 96.3174 128.683 96.995 129.095 97.537C129.404 97.8984 129.713 98.2146 130.022 98.4856Z" fill="#E59D89"/>
<path opacity="0.2" d="M158.562 75.1321C158.15 74.9966 157.789 74.7707 157.428 74.319C155.574 72.196 153.41 68.8534 153.41 68.8534L155.883 67.408C155.728 68.0855 155.574 68.5824 155.471 68.8534C155.471 68.8534 158.201 72.1057 159.85 73.5511C160.313 73.9577 159.695 74.5449 158.562 75.1321Z" fill="#C48476"/>
<path d="M136.46 54.1275C136.46 54.1275 136.46 56.0247 135.791 57.5605C135.121 59.0963 135.481 59.277 136.306 60.2256C137.13 61.1742 138.984 60.6773 139.551 61.9873C140.118 63.2972 138.778 65.0137 139.757 65.6461C140.736 66.2785 140.787 66.3688 141.509 65.3751C142.23 64.3362 142.487 63.6586 143.569 64.3361C144.651 65.0137 145.733 65.5106 145.99 66.8657C146.248 68.1757 145.321 68.8532 147.021 70.3439C148.721 71.8345 148.102 70.7504 149.802 71.7893C151.502 72.8283 155.727 70.9763 156.242 69.1243C156.757 67.2271 157.89 66.7754 158.199 64.291C158.508 61.7614 157.221 59.5029 157.993 57.0185C158.766 54.4889 158.817 53.3145 157.478 52.0948C156.139 50.9204 152.584 51.1463 150.472 50.0622C148.36 48.8877 140.375 46.5388 136.46 54.1275Z" fill="#412A1A"/>
<path d="M189.418 103.771C188.439 103.364 187.358 103.725 186.173 104.81C183.649 107.158 164.434 115.651 159.128 117.367C153.204 119.309 152.328 123.239 151.194 128.75C150.834 130.376 150.834 135.39 150.937 141.669C149.237 140.63 146.455 138.778 143.931 137.062C130.589 128.027 126.21 125.498 124.407 127.26C123.892 127.756 122.81 128.841 123.119 142.076C123.222 146.909 123.531 151.652 123.634 153.685C123.686 154.227 124.201 154.678 124.871 154.633C125.489 154.588 126.004 154.136 125.952 153.549C125.231 142.573 125.077 130.828 126.004 128.795C128.322 129.112 137.492 135.3 142.489 138.688C146.867 141.624 149.494 143.431 150.988 144.108C151.349 157.343 152.225 174.689 152.482 179.116C152.534 179.658 153.049 180.11 153.667 180.064C154.285 180.019 154.8 179.568 154.749 179.026C153.873 162.99 152.534 133.312 153.41 129.157C154.646 123.375 155.367 120.8 159.9 119.309C165 117.683 184.833 109.01 187.821 106.21C188.079 105.984 188.233 105.849 188.388 105.758C188.543 106.255 188.749 107.565 188.388 110.185L188.285 110.908C184.627 134.622 185.761 149.89 187.409 158.699C187.512 159.241 188.13 159.647 188.749 159.512C189.367 159.421 189.779 158.879 189.676 158.337C188.027 149.619 186.946 134.622 190.552 111.134L190.655 110.366C191.582 104.629 189.933 103.997 189.418 103.771Z" fill="#4D4D4D"/>
<path d="M192.922 103.726L192.458 117.864C192.458 117.864 154.543 136.655 150.268 137.242L150.68 122.788C150.68 122.788 189.006 107.972 192.922 103.726Z" fill="#CCCCCC"/>
<path d="M149.133 121.839L150.678 122.788L150.266 137.242L148.721 136.294L149.133 121.839Z" fill="#BCBCBC"/>
<path d="M192.92 103.725C192.611 104.087 192.044 104.493 191.272 104.99C182.926 110.32 150.678 122.788 150.678 122.788L149.133 121.839H149.184C149.184 121.839 149.184 121.839 149.236 121.839C150.936 121.162 187.614 106.933 191.426 102.822L192.92 103.725Z" fill="#BCBCBC"/>
<path d="M18.2363 74.545L45.745 60.1806L64.8054 69.9827L37.0906 84.3019L18.2363 74.545Z" fill="white"/>
<path d="M21.8926 73.9577L24.7259 75.4031L31.0622 72.1508L28.1774 70.7505L21.8926 73.9577Z" fill="#C92041"/>
<path d="M25.6016 75.9904L28.4349 77.4359L34.7711 74.1835L31.8863 72.7831L25.6016 75.9904Z" fill="#FBAA43"/>
<path d="M29.3105 78.0682L32.1438 79.5137L38.4801 76.2614L35.5953 74.8159L29.3105 78.0682Z" fill="#F4A129"/>
<path d="M33.0195 80.101L35.8528 81.5465L42.1891 78.2942L39.3043 76.8939L33.0195 80.101Z" fill="#C92041"/>
<path d="M30.4961 69.6214L33.3294 71.0669L39.6657 67.8145L36.7809 66.4142L30.4961 69.6214Z" fill="#3EBAFF"/>
<path d="M34.2051 71.6541L37.0384 73.1448L43.3231 69.8473L40.4898 68.447L34.2051 71.6541Z" fill="#3AADED"/>
<path d="M37.9141 73.732L40.7474 75.1775L47.0321 71.9251L44.1473 70.5247L37.9141 73.732Z" fill="#2C85B7"/>
<path d="M41.623 75.7647L44.4049 77.2101L50.7411 73.9579L47.8563 72.5576L41.623 75.7647Z" fill="#1C5276"/>
<path d="M130.126 45.5444C129.919 43.7375 127.035 42.3372 123.48 42.3372C119.823 42.3372 116.835 43.873 116.835 45.7702V55.1206C116.783 55.3013 116.783 55.482 116.783 55.6627C116.783 57.5599 119.771 59.0957 123.429 59.0957C127.086 59.0957 130.074 57.5599 130.074 55.6627L130.126 45.5444Z" fill="#7D86AD"/>
<path d="M123.482 49.2491C127.237 49.2491 130.281 47.6918 130.281 45.7709C130.281 43.85 127.237 42.2927 123.482 42.2927C119.726 42.2927 116.682 43.85 116.682 45.7709C116.682 47.6918 119.726 49.2491 123.482 49.2491Z" fill="#DBF5F9"/>
<path d="M123.482 48.7917C126.725 48.7917 129.355 47.4368 129.355 45.7653C129.355 44.0938 126.725 42.7388 123.482 42.7388C120.239 42.7388 117.609 44.0938 117.609 45.7653C117.609 47.4368 120.239 48.7917 123.482 48.7917Z" fill="#07686E"/>
<path d="M116.99 58.1929C116.63 58.1929 116.269 58.1025 115.96 57.967C115.29 57.6508 114.93 57.0636 114.93 56.386V50.6494C114.93 50.017 115.342 49.4298 115.96 49.0684L117.351 48.3457C117.866 48.0747 118.536 48.2102 118.896 48.6619C119.102 48.9781 118.999 49.3846 118.639 49.5653L116.939 50.4687C116.887 50.5139 116.836 50.5591 116.836 50.6494V56.386C116.836 56.4764 116.887 56.5216 116.939 56.5667C116.99 56.6119 117.042 56.6119 117.145 56.5667L117.969 56.1602C118.433 55.9343 118.999 56.0699 119.257 56.4764L119.36 56.6571C119.566 56.9281 119.411 57.2895 119.102 57.4701L118.072 58.0122C117.711 58.1477 117.351 58.1929 116.99 58.1929Z" fill="#0AA8A7"/>
<path opacity="0.2" d="M118.02 48.5262C117.866 48.4359 117.66 48.3907 117.454 48.4811C117.042 48.6618 115.908 49.2038 115.496 49.6104C114.981 50.0621 115.342 50.2879 115.857 50.1073C116.372 49.9266 117.557 49.0683 117.969 48.9328C118.226 48.8424 118.175 48.6617 118.02 48.5262Z" fill="#EBFFFC"/>
</svg>
