<svg width="214" height="205" viewBox="0 0 214 205" fill="none" xmlns="http://www.w3.org/2000/svg">
<path d="M98.6719 136.434L15.4736 165.352L2.0069 157.517L7.96103 155.296L56.9129 137.161L82.5677 127.63L98.6719 136.434Z" fill="#DCECEB"/>
<path d="M81.7284 129.528L93.1172 136.071L89.8004 137.161L78.8512 130.82L81.7284 129.528Z" fill="#C62143"/>
<path d="M63.6672 137.04L75.6954 132.153L86.2051 137.929L73.018 142.573L63.6672 137.04Z" fill="#C62143"/>
<path d="M47.7224 142.25L61.2292 137.686L71.5391 143.542L57.5928 148.51L47.7224 142.25Z" fill="#FBAA43"/>
<path d="M32.2579 148.51L45.365 143.3L55.7148 149.359L41.7685 154.326L32.2579 148.51Z" fill="#FFC945"/>
<path d="M15.9532 154.69L29.0603 149.48L39.4102 155.538L25.4239 160.506L15.9532 154.69Z" fill="#FFCD5F"/>
<path d="M56.9141 137.161L16.9133 160.506L7.96213 155.296L56.9141 137.161Z" fill="#E2F2F1"/>
<path d="M0.28891 149.722L66.6635 111.03L83.2871 120.683L16.9125 159.415L0.28891 149.722Z" fill="#E2F2F1"/>
<path d="M66.4225 112.928L80.209 121.167L78.0111 122.5L64.2247 114.301L66.4225 112.928Z" fill="#1C5276"/>
<path d="M52.3961 122.056L63.0257 116.078L75.6133 123.268L64.9038 129.326L52.3961 122.056Z" fill="#1C5276"/>
<path d="M39.7301 129.124L50.3596 123.147L62.9473 130.336L52.2378 136.434L39.7301 129.124Z" fill="#2C85B7"/>
<path d="M26.7027 136.677L37.3323 130.699L49.9199 137.888L39.2104 143.987L26.7027 136.677Z" fill="#3AADED"/>
<path d="M13.356 144.391L24.0256 138.454L36.6133 145.643L25.9038 151.701L13.356 144.391Z" fill="#3EBAFF"/>
<path d="M214 138.332L184.349 120.157L77.1343 181.386L108.224 200.934L214 138.332Z" fill="#DCECEB"/>
<path d="M214 138.332V142.129L108.783 204.489L77.4141 185.587L77.1343 181.387L108.224 200.935L214 138.332Z" fill="#ADCBC7"/>
<path d="M193.58 126.014L198.615 128.881L162.531 45.5602L159.094 47.0546L193.58 126.014Z" fill="#184863"/>
<path d="M214 97.3319L161.332 46.1194L55.9951 107.591L107.744 160.298L214 97.3319Z" fill="#ADCBC7"/>
<path d="M209.445 97.6613L159.814 49.3972L60.5515 107.314L109.304 157.032L209.445 97.6613Z" fill="white"/>
<path d="M153.299 50.8107L149.103 46.5699L66.8637 94.0667L71.0995 98.7922L153.299 50.8107Z" fill="#ADCBC7"/>
<path d="M88.963 188.697L93.998 191.766L57.7137 106.829L54.317 108.324L88.963 188.697Z" fill="#184863"/>
<path d="M81.6095 165.11L107.064 160.021L104.187 156.184L80.8902 161.435L81.6095 165.11Z" fill="#184863"/>
<path d="M73.7378 161.354C74.9766 166.362 79.0126 170.926 82.729 171.572C86.4453 172.218 88.4833 168.664 87.2446 163.656C86.0058 158.648 81.9697 154.084 78.2534 153.438C74.577 152.832 72.539 156.346 73.7378 161.354Z" fill="#DCECEB"/>
<path d="M75.6568 161.677C76.536 165.272 79.4131 168.543 82.1304 168.987C84.8477 169.432 86.2863 166.887 85.3672 163.333C84.4881 159.738 81.6109 156.467 78.8936 156.023C76.2562 155.538 74.7777 158.082 75.6568 161.677Z" fill="#ADCBC7"/>
<path d="M159.694 55.5765L179.914 76.2554L165.129 84.8985L144.868 63.8965L159.694 55.5765Z" fill="#FFC945"/>
<path d="M147.106 81.1425L167.326 101.821L152.541 110.464L132.281 89.4625L147.106 81.1425Z" fill="#68A3C1"/>
<path d="M143.789 76.8613L136.197 69.1067L115.617 80.9001L123.169 88.897L143.789 76.8613Z" fill="#C62143"/>
<path d="M54.677 109.293L57.8739 108.728L53.1985 81.9502L85.7266 69.9549L84.6476 66.845L49.5221 79.8096L54.677 109.293Z" fill="#184863"/>
<path d="M159.734 47.297L162.931 46.7316L158.215 19.9541L190.783 7.95868L189.664 4.88916L154.539 17.8135L159.734 47.297Z" fill="#184863"/>
<path d="M152.659 19.0654C153.379 21.933 155.656 24.5582 157.814 24.9217C159.972 25.2852 161.131 23.2658 160.412 20.3982C159.692 17.5307 157.415 14.9054 155.257 14.5419C153.139 14.1784 151.98 16.1978 152.659 19.0654Z" fill="#DCECEB"/>
<path d="M153.777 19.2269C154.297 21.2867 155.935 23.1446 157.454 23.4273C158.972 23.6697 159.811 22.2157 159.332 20.1962C158.812 18.1364 157.174 16.2785 155.655 15.9958C154.097 15.7131 153.258 17.2075 153.777 19.2269Z" fill="#ADCBC7"/>
<path d="M153.777 19.2269C154.297 21.2867 155.935 23.1446 157.454 23.4273C158.972 23.6697 159.811 22.2157 159.332 20.1962C158.812 18.1364 157.174 16.2785 155.655 15.9958C154.097 15.7131 153.258 17.2075 153.777 19.2269Z" fill="#ADCBC7"/>
<path d="M46.925 80.3347C47.6443 83.2023 49.9221 85.8275 52.0799 86.191C54.2378 86.5545 55.3967 84.5351 54.6774 81.6675C53.9581 78.7999 51.6803 76.1747 49.5224 75.8112C47.4045 75.4477 46.2457 77.4671 46.925 80.3347Z" fill="#DCECEB"/>
<path d="M48.043 80.4962C48.5625 82.5561 50.2009 84.4139 51.7194 84.6967C53.2379 84.939 54.077 83.485 53.5975 81.4656C53.078 79.4058 51.4396 77.5479 49.9211 77.2652C48.3627 77.0228 47.5235 78.4768 48.043 80.4962Z" fill="#ADCBC7"/>
<path d="M48.043 80.4962C48.5625 82.5561 50.2009 84.4139 51.7194 84.6967C53.2379 84.939 54.077 83.485 53.5975 81.4656C53.078 79.4058 51.4396 77.5479 49.9211 77.2652C48.3627 77.0228 47.5235 78.4768 48.043 80.4962Z" fill="#ADCBC7"/>
<path d="M194.699 0.729088L55.0357 82.2329C53.9568 82.8792 53.8369 84.4139 54.7959 85.2217L66.5044 94.6726C67.1038 95.1572 67.9031 95.1976 68.5424 94.8341L207.366 11.8359C208.485 11.1897 208.565 9.57416 207.526 8.80678L196.657 0.809869C196.057 0.405985 195.298 0.365592 194.699 0.729088Z" fill="#184863"/>
<path d="M203.25 10.705L71.7791 87.2815L63.3473 80.4963L194.459 4.96985L203.25 10.705Z" fill="#1F5E7A"/>
<path d="M51.839 107.395C52.5583 110.262 54.8361 112.888 56.994 113.251C59.1519 113.615 60.3107 111.595 59.5915 108.728C58.8722 105.86 56.5944 103.235 54.4365 102.871C52.3186 102.508 51.1597 104.527 51.839 107.395Z" fill="#DCECEB"/>
<path d="M52.959 107.597C53.4785 109.657 55.1169 111.514 56.6354 111.797C58.1539 112.04 58.9931 110.586 58.5135 108.566C57.994 106.506 56.3557 104.648 54.8371 104.366C53.2787 104.083 52.4395 105.537 52.959 107.597Z" fill="#ADCBC7"/>
<path d="M90.8395 94.9149L93.6367 97.7017L71.7783 110.141L68.981 107.516L90.8395 94.9149Z" fill="#C62143"/>
<path d="M95.0359 99.6807L97.873 102.427L76.0146 114.867L73.2173 112.242L95.0359 99.6807Z" fill="#FFC945"/>
<path d="M99.2722 104.406L102.109 107.193L80.2509 119.633L77.4137 117.007L99.2722 104.406Z" fill="#FBAA43"/>
<path d="M103.508 109.172L106.346 111.959L84.4872 124.358L81.65 121.773L103.508 109.172Z" fill="#376F92"/>
<path d="M107.745 113.938L110.582 116.684L88.7235 129.124L85.8862 126.499L107.745 113.938Z" fill="#1C5276"/>
<path d="M134.759 113.09C135.079 113.13 136.437 113.655 137.556 114.099C137.556 114.059 137.596 114.019 137.596 113.978L134.959 112.565C134.959 112.565 133.68 112.08 133.76 111.716C133.84 111.353 134.04 111.393 134.479 111.474C134.839 111.555 136.917 112.645 137.876 113.17L135.318 111.313C135.318 111.313 134.08 110.545 134.199 110.182C134.359 109.818 134.479 109.939 134.919 110.101C135.278 110.262 137.596 111.838 138.395 112.443C138.315 112.322 138.195 112.161 138.116 112.04C137.876 111.757 136.157 110.424 135.878 109.98C135.598 109.535 135.718 109.374 136.197 109.414C136.637 109.455 138.155 111.07 138.595 111.353C138.875 111.555 139.594 111.797 139.914 111.999C140.273 111.918 140.873 111.716 140.913 111.393C140.953 111.07 140.353 110.545 140.713 110.303C141.073 110.061 141.312 110.545 141.792 111.07C142.271 111.595 142.391 112.322 142.591 112.726C142.791 113.13 143.031 113.857 143.031 113.857L143.75 114.221C142.511 114.826 142.911 117.007 142.911 117.007C142.911 117.007 140.953 116.28 140.393 116.159C139.794 116.038 138.076 115.594 137.636 115.109C137.596 115.069 137.596 115.069 137.596 115.028L135.039 114.059C135.039 114.059 133.72 113.574 133.76 113.211C133.8 112.807 134.279 113.009 134.759 113.09Z" fill="#FD8D68"/>
<path d="M181.714 184.9C181.714 184.9 181.554 181.508 181.754 180.215C181.953 178.923 177.278 179.529 176.798 179.327C176.319 179.084 177.278 181.346 176.319 182.841C175.44 184.294 177.278 187.889 181.714 184.9Z" fill="#FD8D68"/>
<path d="M169.605 183.527C169.605 184.052 169.685 184.537 169.805 184.941C170.165 186.152 172.483 187.041 173.881 187.283C175.28 187.526 177.358 188.899 178.357 189.262C179.356 189.626 181.154 189.384 181.913 188.98C182.673 188.576 182.992 187.566 182.712 187.001C182.673 186.92 182.633 186.839 182.593 186.758C182.313 185.991 181.993 184.416 181.993 184.416C180.954 183.366 181.314 186.839 177.398 184.941C176.199 184.335 176.519 184.052 176.638 183.325C176.758 182.639 176.638 182.76 176.279 182.517C175.919 182.275 175.04 182.518 174.201 182.073C173.402 181.629 171.563 180.983 170.564 181.346C169.885 181.548 169.605 182.517 169.605 183.527Z" fill="#242733"/>
<path d="M173.879 164.504C174.119 166.604 174.239 177.509 175.038 179.286C175.797 180.942 176.556 181.023 178.435 181.346C178.554 181.386 178.714 181.386 178.834 181.427C181.032 181.79 183.11 180.498 182.67 178.721C182.191 176.984 182.79 168.866 182.79 167.25C182.79 165.595 181.991 164.544 181.871 163.05C181.751 161.515 181.631 161.273 182.431 159.294C182.75 158.486 183.829 157.315 185.028 156.103C186.746 154.367 188.784 152.509 189.384 151.337C189.903 150.368 190.862 149.358 191.821 148.228C192.86 147.016 193.939 145.643 194.459 144.068C195.498 141.038 194.699 137.04 194.699 137.04C194.699 137.04 194.019 131.184 191.462 132.355C188.904 133.526 178.235 136.474 178.235 136.474C178.235 136.474 179.034 139.059 177.675 141.765C177.515 142.089 177.316 142.492 177.156 143.017C175.757 146.854 173.759 155.376 173.04 157.355C172.241 159.496 173.639 162.404 173.879 164.504Z" fill="#3D4156"/>
<path d="M209.564 179.246C209.564 179.246 208.006 176.782 207.287 175.288C206.567 173.794 203.53 175.853 203.011 176.176C202.491 176.459 203.57 178.923 203.57 179.731C203.57 180.579 207.207 182.8 209.564 179.246Z" fill="#FD8D68"/>
<path d="M199.135 183.931C200.054 184.456 204.49 184.133 205.769 184.052C207.047 183.971 208.526 184.658 209.525 184.375C210.564 184.092 212.042 182.679 211.883 182.073C211.843 181.871 211.643 181.588 211.443 181.225C210.884 180.377 210.044 179.327 210.044 179.327C210.044 179.327 209.205 178.357 209.245 178.882C209.285 179.407 207.607 180.215 206.648 180.417C205.089 180.74 204.41 180.256 204.17 179.771C203.93 179.246 203.491 178.6 203.251 179.125C203.011 179.65 201.213 179.973 200.494 180.579C200.094 180.942 199.335 181.871 199.015 182.719C198.815 183.244 198.775 183.729 199.135 183.931Z" fill="#242733"/>
<path d="M199.135 183.931C200.054 184.456 204.49 184.133 205.769 184.052C207.047 183.971 208.526 184.658 209.525 184.375C210.564 184.092 212.042 182.679 211.883 182.073C211.843 181.871 211.643 181.588 211.443 181.225C210.884 181.831 209.645 182.962 208.286 183.042C206.448 183.123 201.932 183.042 200.973 183.083C200.254 183.123 199.575 183.083 199.055 182.719C198.815 183.244 198.775 183.729 199.135 183.931Z" fill="#7B85AD"/>
<path d="M186.067 134.657C186.067 134.657 186.307 148.268 186.746 152.832C186.786 153.317 186.866 153.761 186.946 154.205C187.745 157.961 190.023 160.263 192.301 162.687C194.858 165.393 202.171 177.469 202.171 177.469C203.69 178.034 204.929 177.711 205.808 177.105C207.166 176.217 207.846 174.682 207.846 174.682C204.609 162.242 198.815 157.679 197.176 156.628C195.538 155.578 196.497 155.821 197.056 154.528C197.616 153.236 197.536 150.207 198.335 148.308C199.134 146.451 201.252 139.988 201.332 135.869C201.452 131.749 197.975 127.549 197.975 127.549C190.822 133.365 186.067 134.657 186.067 134.657Z" fill="#3D4156"/>
<path d="M143.27 118.825C143.27 118.825 159.494 123.873 161.812 123.146C164.13 122.46 164.729 122.096 167.047 120.198C169.365 118.34 174.12 114.907 174.12 114.907C174.12 114.907 175.958 117.855 176.318 123.106C176.677 128.397 175.039 142.088 175.039 142.088C175.718 142.533 176.398 142.896 177.037 143.26C180.394 145.158 183.351 146.249 185.908 146.814C186.548 146.935 187.147 147.056 187.747 147.097C197.817 148.268 201.413 140.19 201.933 138.454C202.612 136.111 203.451 130.134 201.813 127.912C200.174 125.691 195.219 118.057 193.941 114.544C192.662 111.03 193.821 110.787 193.341 107.516C192.862 104.245 193.581 100.488 193.701 98.469C193.821 96.49 194.74 94.3494 193.101 92.6127C191.463 90.876 189.025 91.1991 186.947 91.9261C184.869 92.6127 183.95 92.9762 183.95 92.9762C181.633 91.9261 177.477 96.7323 177.477 96.7323C177.477 96.7323 177.357 97.5401 176.558 99.196C175.758 100.852 171.443 103.316 170.404 105.295C169.365 107.274 162.531 115.271 160.533 115.028C158.575 114.786 158.695 115.594 156.577 115.715C154.499 115.836 148.705 115.351 147.306 114.059C145.908 112.767 143.59 113.372 143.59 113.372C142.911 114.18 142.511 114.907 142.311 115.513C141.552 117.855 143.27 118.825 143.27 118.825Z" fill="#8B3D55"/>
<path d="M183.51 93.6627C183.51 93.6627 181.352 90.9566 181.232 89.0988C181.152 87.2409 183.23 81.2634 181.072 78.1131C178.914 74.9628 173.08 72.0549 169.324 75.2859C165.567 78.5574 167.685 85.0599 168.524 87.6044C169.404 90.1489 170.163 92.451 171.841 93.0568C173.48 93.6627 173.759 92.6126 174.718 93.5011C175.677 94.3897 177.955 97.7015 177.955 97.7015C177.955 97.7015 180.473 94.0665 183.51 93.6627Z" fill="#FD8D68"/>
<path d="M169.603 183.527C169.603 184.052 169.683 184.537 169.803 184.941C170.163 186.152 172.481 187.041 173.879 187.283C175.278 187.526 177.356 188.899 178.355 189.262C179.354 189.626 181.152 189.383 181.911 188.979C182.671 188.576 182.99 187.566 182.711 187C182.671 186.92 182.631 186.839 182.591 186.758C182.311 187.162 181.751 187.687 180.513 187.889C178.355 188.252 176.237 187.081 175.398 186.758C174.559 186.395 170.483 185.91 169.603 183.527C169.603 183.567 169.603 183.527 169.603 183.527Z" fill="#7B85AD"/>
<path d="M191.062 91.6031C191.062 91.6031 184.349 90.1087 181.672 90.6337C178.994 91.1588 170.722 89.9471 168.445 88.6951C166.167 87.4834 165.208 87.3622 164.009 87.2007C162.81 87.0391 162.61 89.2201 163.05 90.553C163.41 91.6435 167.965 92.4916 170.003 93.4609C171.122 93.986 172.281 94.3899 173.44 94.713C175.078 95.1573 177.036 95.7631 177.915 96.3285C179.594 97.419 188.705 91.7242 191.062 91.6031Z" fill="#8B3D55"/>
<path d="M153.899 86.7161C154.299 86.6353 155.737 86.8776 156.017 86.918C155.937 86.8776 155.857 86.8372 155.817 86.8372C155.378 86.6353 154.099 86.5545 153.939 86.3122C153.779 86.0295 153.779 85.9487 154.219 85.9083C154.339 85.9083 154.539 85.9083 154.778 85.9487C154.698 85.9083 154.658 85.8679 154.618 85.8275C154.459 85.5448 154.459 85.464 154.898 85.4236C155.058 85.4236 155.338 85.464 155.618 85.5044C155.538 85.464 155.458 85.4236 155.458 85.3832C155.298 85.1005 155.298 85.0197 155.737 84.9793C156.217 84.939 157.855 85.3832 157.855 85.3832L159.454 85.9083C160.573 85.9891 162.251 87.3219 162.251 87.3219L163.77 87.9277C163.09 88.4528 163.37 90.2702 163.37 90.2702C163.37 90.2702 162.131 90.0683 161.172 89.7856C160.772 89.7856 160.293 89.826 159.853 89.9067C159.054 90.0683 157.536 89.7452 156.736 89.624C155.937 89.4625 156.057 89.1394 156.457 88.9374C156.856 88.6951 158.215 89.3413 158.774 88.9778C157.895 88.6547 156.976 88.2508 156.816 87.9277C156.617 87.8469 156.017 87.645 155.618 87.4834C155.178 87.3219 153.899 87.3623 153.699 87.12C153.46 86.918 153.46 86.7968 153.899 86.7161Z" fill="#FD8D68"/>
<path d="M166.167 77.1037C166.167 77.1037 166.007 78.8 166.527 79.9712C167.046 81.1425 168.445 83.0004 168.565 84.0908C168.685 85.1409 168.965 85.3833 170.243 85.9487C171.522 86.5545 171.802 87.0796 172.042 88.1701C172.281 89.2605 174.719 91.3203 174.479 94.1475C174.239 96.9747 175.478 102.831 178.835 103.72C182.192 104.608 187.027 103.356 188.226 101.902C189.424 100.448 188.705 98.9134 189.904 96.8536C191.103 94.7938 187.986 93.0974 187.826 91.6839C187.666 90.2703 186.427 90.0279 185.149 89.8664C183.87 89.7048 182.232 88.2912 182.351 86.8776C182.471 85.464 183.231 81.8291 182.311 79.2442C181.392 76.6594 179.994 75.0438 177.077 73.9534C174.159 72.9033 172.161 72.4186 169.244 73.6706C166.327 74.9227 166.167 77.1037 166.167 77.1037Z" fill="#12233D"/>
<path d="M185.668 130.82C185.668 130.82 185.668 137.363 184.989 141.2C184.989 141.2 178.875 140.311 176.757 138.655C176.757 138.655 177.716 130.335 177.716 128.801L185.668 130.82Z" fill="#6D3046"/>
<path d="M185.109 131.264L185.029 132.355L178.116 130.578L178.276 129.406L185.109 131.264Z" fill="#D15E8D"/>
<path opacity="0.5" d="M143.269 118.825C143.269 118.825 159.493 123.873 161.811 123.146C164.129 122.46 164.728 122.096 167.046 120.198C169.363 118.34 174.119 114.907 174.119 114.907C174.119 114.907 175.957 117.855 176.317 123.106C176.676 128.397 175.038 142.088 175.038 142.088C180.113 145.239 184.309 146.733 187.745 147.097C187.905 145.481 188.385 139.907 186.826 135.546C184.988 130.376 180.433 120.481 179.873 116.402C179.314 112.282 178.634 109.737 176.396 111.313C174.159 112.888 168.284 117.654 165.767 118.542C163.249 119.431 162.77 116.967 160.332 117.977C157.895 118.946 155.897 119.229 151.821 118.381C148.704 117.694 144.228 116.2 142.35 115.553C141.551 117.855 143.269 118.825 143.269 118.825Z" fill="#6D3046"/>
<path opacity="0.3" d="M173.88 164.504C174.12 166.604 174.24 177.509 175.039 179.286C175.798 180.942 176.557 181.023 178.436 181.346C177.916 178.6 177.836 165.474 178.595 163.171C179.355 160.829 179.275 161.233 178.875 159.173C178.475 157.113 178.795 157.234 180.434 154.569C181.792 152.347 184.949 148.187 185.908 146.854C183.351 146.329 180.394 145.199 177.037 143.3C175.638 147.299 173.76 155.336 173.081 157.234C172.242 159.496 173.64 162.404 173.88 164.504Z" fill="#242733"/>
<path opacity="0.3" d="M186.947 154.165C187.746 157.921 190.024 160.223 192.302 162.646C194.859 165.352 202.172 177.428 202.172 177.428C203.691 177.994 204.929 177.671 205.809 177.065C204.61 174.278 200.494 165.15 198.136 163.091C195.339 160.627 192.142 156.427 192.062 154.771C191.982 153.64 191.583 150.53 191.862 148.187C190.903 149.318 189.904 150.328 189.425 151.297C189.025 152.024 188.066 153.074 186.947 154.165Z" fill="#242733"/>
<path opacity="0.3" d="M192.821 145.681C192.741 145.761 192.661 145.841 192.581 145.961C193.021 145.481 193.141 145.321 192.821 145.681Z" fill="#242733"/>
</svg>
