<svg width="204" height="187" viewBox="0 0 204 187" fill="none" xmlns="http://www.w3.org/2000/svg">
<path d="M174.972 23.8618C174.972 23.8618 173.346 28.1106 172.348 29.6522C171.313 31.1938 170.057 32.6978 170.057 32.6978C170.057 32.6978 162.221 41.3457 161.445 42.4737C160.669 43.6017 163.33 44.6545 164.18 44.6545C165.03 44.6545 173.272 38.7513 174.825 37.5481C176.34 36.3449 178.558 31.3066 179.334 29.9154C180.073 28.5242 178.558 25.3282 174.972 23.8618Z" fill="#F4D7C7"/>
<path d="M161.149 42.6994C161.149 42.6994 159.892 42.8498 159.559 44.5794C159.227 46.3089 159.744 47.2113 160.336 47.9257C160.927 48.6401 163.736 45.557 164.364 44.617C164.993 43.677 164.143 40.3306 161.149 42.6994Z" fill="#F4D7C7"/>
<path d="M191.382 20.7786C189.83 21.1922 188.093 21.4554 186.947 20.4778C187.982 19.9514 189.017 19.1242 189.756 17.921C190.976 15.8906 191.974 13.5594 192.233 11.4163C192.307 11.9427 192.491 12.6571 192.935 13.221C193.748 14.1986 194.746 14.9506 195.263 15.665C195.781 16.2666 193.341 20.2522 191.382 20.7786Z" fill="#F4D7C7"/>
<path d="M178.41 35.9314C178.41 35.9314 179.076 42.8497 179.076 44.3537C179.076 45.8577 178.854 50.5953 178.521 52.3249C178.189 54.0545 181.145 55.1072 184.324 55.6712C187.503 56.2352 190.57 56.8368 193.971 56.6112C197.371 56.3856 198.406 55.3328 199.774 54.2049C201.141 53.0393 199.33 36.6458 200.55 33.8634C201.806 31.081 203.063 26.2306 202.472 23.7115C201.917 21.1547 195.079 15.4019 195.079 15.4019C195.079 15.4019 192.825 22.0571 187.281 20.5531C181.737 19.0491 186.246 13.2211 186.246 13.2211C186.246 13.2211 181.589 12.7699 178.965 15.1763C176.341 17.5827 174.086 23.9371 174.086 23.9371C174.086 23.9371 174.751 25.8922 177.154 27.1706C179.519 28.4114 178.299 32.1338 178.41 35.9314Z" fill="#0AA8A7"/>
<path d="M192.232 12.5067C191.974 14.6875 191.087 16.9811 189.941 19.0115C189.276 20.2147 188.315 21.0795 187.354 21.5683C185.949 22.3203 184.471 22.4331 183.658 22.1323C182.29 21.6059 181.92 20.4027 180.738 16.8307C179.518 13.2587 179.961 8.06997 179.961 8.06997C181.699 1.30201 187.243 2.6556 189.165 3.558C191.087 4.49799 191.53 6.67878 192.159 9.57396C192.343 10.4764 192.38 11.454 192.232 12.5067Z" fill="#CCCCCC"/>
<path d="M192.233 11.7547C191.937 13.9354 190.976 16.229 189.756 18.2594C189.017 19.4626 187.982 20.3274 186.947 20.8162C185.432 21.5682 183.806 21.681 182.956 21.3802C181.477 20.8538 181.071 19.6506 179.777 16.0786C178.483 12.5066 178.927 7.31789 178.927 7.31789C180.812 0.549939 186.8 1.90353 188.906 2.80592C191.013 3.74591 191.457 5.9267 192.159 8.82188C192.344 9.72427 192.381 10.7019 192.233 11.7547Z" fill="#F4D7C7"/>
<path d="M177.596 5.85158C177.596 5.85158 177.152 7.46837 177.707 8.44597C178.261 9.42356 177.928 8.89717 178.778 9.94996C179.629 11.0028 181.107 9.61156 182.364 10.2884C183.62 10.9652 184.249 11.266 185.653 11.1532C187.058 11.0404 188.166 11.6796 188.166 11.6796C188.166 11.6796 188.832 12.9955 188.795 14.1611C188.721 15.3267 190.495 13.7099 190.495 13.7099C190.495 13.7099 189.571 10.8148 190.421 10.2508C191.271 9.68676 191.678 12.5443 191.788 13.2587C191.899 13.9355 192.306 14.3491 192.934 12.6195C193.563 10.89 193.267 9.68676 193.378 8.44597C193.489 7.24277 192.712 6.71637 192.528 4.64838C192.343 2.58039 191.049 2.054 189.977 0.963602C188.906 -0.126793 186.023 0.399605 184.027 0.286805C182.031 0.174006 180.626 3.52039 179.37 3.93399C178.113 4.30999 177.596 5.85158 177.596 5.85158Z" fill="#412418"/>
<path d="M191.309 105.905C191.309 105.905 191.752 102.22 191.382 101.129C191.05 100.039 195.116 101.054 195.707 100.904C196.298 100.753 195.67 102.633 196.446 104.288C197.222 105.942 195.559 107.033 194.709 106.957C193.859 106.957 191.53 106.657 191.309 105.905Z" fill="#F4D7C7"/>
<path d="M178.594 94.6622C178.594 94.6622 179.259 91.3534 178.852 89.9998C178.409 88.6086 182.77 89.7742 183.362 90.0374C183.953 90.3006 183.621 93.3838 183.805 93.9478C183.953 94.4742 180.368 98.5726 178.594 94.6622Z" fill="#F4D7C7"/>
<path d="M186.466 55.22C186.466 55.22 186.023 63.5296 185.912 66.7632C185.801 69.9968 186.688 76.5767 186.836 79.0207C186.947 81.4271 188.093 83.8711 188.647 86.1647C189.201 88.4583 190.569 93.3086 190.68 95.4142C190.791 97.4822 191.012 98.3094 190.569 100.152C190.125 101.994 195.337 102.445 196.704 100.716C198.072 98.9862 197.85 90.3382 196.704 85.6007C195.559 80.8631 196.039 80.8631 196.594 78.1935C197.148 75.5239 198.848 64.2064 199.329 61.9128C199.772 59.6192 199.329 52.8889 199.329 52.8889C199.329 52.8889 195.891 55.6712 186.466 55.22Z" fill="#113D4F"/>
<path d="M178.853 52.6633C178.853 52.6633 176.598 66.3872 176.82 68.6056C177.042 70.7863 177.374 75.5239 177.374 75.5239C177.374 75.5239 178.151 87.1798 177.929 89.135C177.707 91.0902 180.886 93.9854 183.953 90.639C183.953 90.639 185.432 82.5551 185.21 77.5919C184.988 72.6287 188.943 63.7176 189.535 61.0856C190.089 58.416 190.2 56.1224 190.2 56.1224C190.2 56.1224 179.666 54.7689 178.853 52.6633Z" fill="#113D4F"/>
<path d="M197.37 108.048C196.852 109.101 195.115 113.462 193.452 114.966C191.789 116.47 187.834 116.32 187.353 115.492C187.279 115.342 187.205 115.192 187.132 115.079C186.91 114.477 186.984 114.026 187.501 113.086C187.76 112.597 188.24 111.883 188.721 111.206C189.645 109.815 190.347 108.273 190.68 106.657C190.828 106.017 190.938 105.453 190.938 105.265C190.975 104.927 192.823 104.889 193.895 105.153C194.265 105.265 194.524 105.604 194.524 105.98C194.524 106.281 194.598 106.544 194.93 106.506C195.559 106.393 196.224 105.153 196.224 104.513C196.224 103.874 196.335 103.611 196.815 104.213C197 104.438 197.222 104.927 197.37 105.491C197.554 106.356 197.665 107.409 197.37 108.048Z" fill="#113D4F"/>
<path d="M197.371 108.048C196.854 109.101 195.116 113.462 193.453 114.966C191.79 116.47 187.835 116.32 187.355 115.493C187.281 115.342 187.207 115.192 187.133 115.079C188.057 115.267 190.385 115.568 192.012 114.553C194.118 113.274 196.927 108.161 197.334 105.491C197.556 106.356 197.667 107.409 197.371 108.048Z" fill="#0AA8A7"/>
<path d="M184.138 95.715C184.138 96.2038 184.102 96.655 183.991 96.9934C183.621 98.2342 180.332 99.287 179.149 100.302C177.966 101.28 176.82 102.859 175.12 103.385C173.42 103.912 171.831 104.062 171.572 102.483C171.572 102.37 171.535 102.295 171.535 102.22C171.387 100.866 171.831 100.791 172.237 99.9638C172.718 99.099 176.044 96.7678 176.709 96.0534C177.375 95.3766 178.484 94.1734 178.484 94.1734C180.11 94.0606 179.999 95.0758 180.701 95.527C181.366 95.9782 182.549 94.6246 182.845 93.9854C183.141 93.3462 183.917 93.1958 183.917 93.1958C183.917 93.1958 184.138 94.5118 184.138 95.715Z" fill="#113D4F"/>
<path d="M184.139 95.715C184.139 96.2038 184.102 96.655 183.991 96.9934C183.621 98.2342 180.332 99.287 179.149 100.302C177.966 101.28 176.821 102.859 175.12 103.385C173.42 103.912 171.831 104.062 171.572 102.483C171.572 102.37 171.535 102.295 171.535 102.22C171.831 102.558 172.348 102.897 173.309 102.784C175.046 102.558 176.636 101.242 177.892 100.152C179.186 99.0614 180.812 98.0838 181.884 97.4822C182.623 97.031 183.51 96.3542 184.139 95.715Z" fill="#0AA8A7"/>
<path d="M196.263 33.8259C196.263 33.8259 195.856 41.5338 195.856 43.1882C195.856 44.8802 196.189 45.2562 195.782 46.3842C195.376 47.5122 181.589 51.9865 181.589 51.9865C181.589 51.9865 181.442 54.4681 182.218 55.5961C182.994 56.7241 187.097 55.2577 189.24 55.1073C191.384 54.9569 199.885 52.9265 201.068 52.4001C202.25 51.8361 202.657 47.0986 202.731 45.4442C202.805 43.7522 203.064 34.3147 203.064 34.3147C203.064 34.3147 198.702 34.8035 196.263 33.8259Z" fill="#F4D7C7"/>
<path d="M200.105 21.8315C201.066 21.7939 201.953 22.3203 202.396 23.1851C203.173 24.7267 204.244 28.0354 203.949 34.1642C203.949 34.1642 204.134 36.3074 197.924 35.4426C193.008 34.7658 195.706 25.0651 196.778 23.6739C197.887 22.2827 199.144 21.8691 200.105 21.8315Z" fill="#0A938F"/>
<path d="M162.96 54.9945L157.305 31.645L172.717 40.105L177.042 61.8L162.96 55.3329V54.9945Z" fill="#1A5277"/>
<path d="M181.625 52.024C181.625 52.024 178.151 52.3624 177.19 52.2872C176.229 52.2496 174.677 51.4977 174.344 53.2648C174.012 55.032 173.827 56.5736 175.01 57.1C176.229 57.6264 179.408 56.9872 180.591 56.724C181.736 56.4608 183.584 56.0472 183.584 56.0472L181.625 52.024Z" fill="#F4D7C7"/>
<path d="M176.45 52.325L173.419 52.0242L171.201 51.4226C171.201 51.4226 170.758 51.385 171.091 51.949C171.386 52.513 171.978 52.701 172.939 53.0393C173.9 53.3777 176.339 53.4905 176.339 53.4905C176.339 53.4905 176.856 53.4905 176.45 52.325Z" fill="#F4D7C7"/>
<path d="M175.969 53.4529L172.901 52.8889L170.684 52.2873C170.684 52.2873 170.24 52.2497 170.573 52.8137C170.869 53.3777 171.46 53.5657 172.421 53.9041C173.382 54.2425 175.674 54.6937 175.674 54.6937C175.674 54.6937 176.376 54.6185 175.969 53.4529Z" fill="#F4D7C7"/>
<path d="M176.635 54.6185L173.605 54.3177L171.387 53.7162C171.387 53.7162 170.943 53.6786 171.276 54.2425C171.572 54.8065 172.163 54.9945 173.124 55.3329C174.085 55.6713 176.044 56.0849 176.044 56.0849C176.044 56.0849 177.005 55.7841 176.635 54.6185Z" fill="#F4D7C7"/>
<path d="M177.448 56.1225L174.417 55.8217L172.199 55.2201C172.199 55.2201 171.756 55.1825 172.089 55.7465C172.384 56.3105 172.976 56.4985 173.937 56.8369C174.898 57.1753 177.337 57.2881 177.337 57.2881C177.337 57.2881 177.818 57.2881 177.448 56.1225Z" fill="#F4D7C7"/>
<path d="M178.52 52.3249C178.52 52.3249 177.412 51.3849 176.598 51.1593C175.785 50.8961 174.861 50.8585 174.861 50.8585L175.083 51.7233C175.083 51.7233 175.416 51.4601 175.859 52.1745C176.229 52.8513 178.52 52.3249 178.52 52.3249Z" fill="#F4D7C7"/>
<path d="M160.041 43.4138C160.041 43.4138 160.484 44.1282 161.075 44.4666C161.704 44.805 162.48 44.993 162.591 45.2562C162.739 45.557 162.443 45.5946 161.889 45.557C161.334 45.5194 159.745 44.7674 159.56 44.3914C159.375 44.053 159.412 43.6018 160.041 43.4138Z" fill="#F4D7C7"/>
<path d="M159.707 44.1281C159.707 44.1281 160.188 44.9177 160.853 45.2937C161.518 45.6697 162.368 45.8577 162.516 46.1585C162.664 46.4593 162.368 46.5345 161.74 46.4969C161.112 46.4593 159.411 45.6321 159.19 45.2185C159.005 44.8049 159.042 44.3537 159.707 44.1281Z" fill="#F4D7C7"/>
<path d="M159.819 45.5569C159.819 45.5569 160.188 45.9705 160.817 46.2337C161.408 46.4969 162.221 46.7601 162.369 47.0233C162.517 47.2865 162.258 47.3617 161.741 47.3993C161.223 47.4369 159.708 46.8729 159.486 46.5345C159.264 46.1961 159.264 45.7825 159.819 45.5569Z" fill="#F4D7C7"/>
<path d="M159.928 46.5721C159.928 46.5721 160.408 47.0609 161.037 47.2865C161.628 47.5497 162.33 47.7753 162.515 48.0385C162.663 48.3017 162.404 48.3769 161.887 48.4145C161.369 48.4521 159.854 47.8881 159.632 47.5497C159.374 47.2489 159.374 46.8353 159.928 46.5721Z" fill="#F4D7C7"/>
<path d="M161.481 35.0666L160.705 31.9458L168.799 36.1194L169.28 38.977L161.481 35.0666Z" fill="#FFAA3F"/>
<path d="M151.538 156.476V164.861H138.047L90.4789 137.902L68.0069 141.587L14.8574 110.492C14.9683 110.041 15.1531 109.589 15.3379 109.176C15.8184 108.161 16.4837 107.145 17.3338 106.168C17.6664 105.792 18.036 105.453 18.4426 105.077C19.1449 104.551 19.921 104.025 20.7711 103.536L25.9826 100.566L27.6828 99.5879L33.7443 96.1663L36.9599 94.3615L38.6601 93.3839L41.7278 91.6544L43.0584 92.4439L45.7565 94.0607L46.1261 94.2863L49.3417 96.1663L51.3376 97.3695L52.4095 98.0087L55.4033 99.7759L57.5839 101.054L58.471 101.581L62.3519 103.874L62.9063 104.175L63.5716 104.589L64.4956 105.115L65.4566 105.679L68.5243 107.484L68.9678 107.747L70.0767 108.386L70.742 108.8L71.592 109.326L76.0643 111.958L79.8343 114.177L91.6617 121.17L94.5446 122.862L97.4645 124.592L99.3865 125.72L105.226 129.141L105.263 129.179L122.487 139.368L125.518 141.173L135.275 146.926L145.255 152.829L146.511 153.581L146.807 153.732L151.538 156.476Z" fill="#CFD1D2"/>
<path d="M156.343 99.1742V64.62L91.6244 26.6066L26.9062 64.62L91.5874 102.671L91.8092 137.037L156.343 99.1742Z" fill="#E4F2F1"/>
<path d="M97.502 113.011V133.729L108.664 127.186L150.467 102.633V81.916L133.465 91.8799L97.502 113.011Z" fill="#5F6384"/>
<path d="M91.8092 137.037L26.9062 99.1743V64.6201L91.5874 102.671L91.8092 137.037Z" fill="#B2C5C3"/>
<path d="M190.827 127.487L190.421 127.712L187.094 129.705L185.542 130.645L172.901 138.165L145.292 154.634L143.887 155.461L143.665 155.611L124.372 144.144L97.3906 128.051L97.5015 126.81L99.7191 125.532L142.631 100.49L144.626 99.3246L175.341 118.049L190.827 127.487Z" fill="#B9C5C4"/>
<path d="M38.6226 94.9254L26.8691 101.844L26.9431 106.506L38.7335 99.5878L38.6226 94.9254Z" fill="#C9D9D7"/>
<path d="M153.202 101.28V82.8559C153.202 79.9983 150.171 78.2311 147.768 79.6975L98.6107 109.1C96.0974 110.604 94.582 113.312 94.582 116.282L94.619 135.721L97.5389 134.029V113.312L150.504 82.2167V102.859L153.202 101.28Z" fill="#CAE0DE"/>
<path d="M156.343 64.62L91.5874 102.671L26.9062 64.62L91.6244 26.6066L156.343 64.62Z" fill="#DAEAE9"/>
<path d="M115.169 47.3617L87.4488 24.8395L32.4883 57.6265L62.2047 78.4567L115.169 47.3617Z" fill="#E2F7F4"/>
<path d="M144.589 57.7016L80.3878 96.0158L62.2031 85.375L126.921 47.3617L144.589 57.7016Z" fill="#5F6384"/>
<path d="M79.8715 102.633V123.351L38.6973 99.1741V78.4567L79.8715 102.633Z" fill="#B8CAC8"/>
<path d="M79.8709 123.351L68.0804 130.269L26.9062 106.092L38.6967 99.1741L79.8709 123.351Z" fill="#B4C4C2"/>
<path d="M196.593 131.36L151.095 157.867L145.292 154.634L145.144 154.559L133.428 147.979L139.009 144.783L149.875 151.175L150.319 151.438L172.902 138.165L185.616 130.683L185.542 130.645L185.173 130.42L173.493 123.99L178.778 120.907L190.421 127.712L190.938 128.051L196.593 131.36Z" fill="#DAEAE9"/>
<path d="M196.592 131.36V138.203L151.352 164.635L151.094 157.867L196.592 131.36Z" fill="#E4F2F1"/>
<path d="M151.352 164.635L145.513 161.063L144.182 161.891L139.229 158.92L122.338 148.919L97.1309 133.954L97.3896 128.051L124.371 144.144L143.665 155.611L145.328 154.483L151.094 157.867L151.352 164.635Z" fill="#CAE0DE"/>
<path d="M62.2039 78.4567L32.7832 61.1609L35.6661 59.5065L62.2039 78.4567Z" fill="#B8CAC8"/>
<path d="M103.452 93.1958L96.4663 89.1726L84.6758 96.091L91.3657 100.302L103.452 93.1958Z" fill="#67A2C1"/>
<path d="M102.38 93.3839L96.2081 89.8495L85.7852 95.9407L91.6989 99.663L102.38 93.3839Z" fill="white"/>
<path d="M145.255 74.9224V79.6975L99.793 105.754V100.866L145.255 74.9224Z" fill="#B8CAC8"/>
<path d="M147.286 62.0255L144.514 60.3335L140.781 62.4015L143.627 64.0559L147.286 62.0255Z" fill="#C72041"/>
<path d="M151.132 64.3568L148.36 62.6649L144.627 64.7328L147.473 66.3872L151.132 64.3568Z" fill="#E9A83F"/>
<path d="M195.558 133.24V137.714L185.024 143.993L184.691 139.669L195.558 133.24Z" fill="#5F6384"/>
<path d="M195.558 133.24V137.714L184.691 144.144V139.669L195.558 133.24Z" fill="#5F6384"/>
<path d="M163.513 152.152V156.664L152.794 162.906L152.684 158.619L163.513 152.152Z" fill="#5F6384"/>
<path d="M133.279 149.37L147.953 157.491C148.692 157.905 149.135 158.657 149.209 159.484V159.597C149.283 160.763 148.027 161.552 147.029 160.988L133.501 153.581L133.279 149.37Z" fill="#E4F2F1"/>
<path d="M145.329 154.483L145.514 161.063L144.183 161.891L144.072 155.348L145.329 154.483Z" fill="#BACCCA"/>
<path d="M190.939 128.051C189.719 128.615 188.425 129.179 187.095 129.705C186.466 129.968 185.801 130.194 185.173 130.457C184.618 130.645 184.064 130.871 183.473 131.059C180.775 131.961 177.67 133.39 174.713 134.932C168.651 138.052 163.218 141.587 163.218 141.587C163.218 141.587 159.226 144.482 154.237 148.091C153.017 148.994 151.465 150.084 149.875 151.212C148.249 152.378 146.586 153.543 145.144 154.596C144.775 154.859 144.405 155.123 144.073 155.386C143.999 155.423 143.962 155.461 143.925 155.499C143.629 155.762 143.001 158.394 143.075 161.214L122.414 148.956C123.338 147.452 124.151 145.76 124.447 144.181C124.631 143.166 124.594 142.151 124.225 141.324C123.116 138.842 114.652 133.728 107.593 129.78C104.451 128.051 101.605 126.509 99.7938 125.569C99.609 125.456 99.4242 125.381 99.2764 125.306C99.0176 125.156 98.9807 125.193 97.5762 124.178V114.891L104.414 110.868L132.43 94.4366C135.498 96.2038 139.563 98.5726 139.748 98.6854C140.266 99.0238 141.338 99.663 142.742 100.49C144.516 101.581 146.882 102.972 149.432 104.551C157.231 109.288 167.21 115.304 170.352 117.147C171.83 118.012 173.604 118.2 175.452 118.049L190.939 127.487L190.532 127.75L190.939 128.051Z" fill="#CFD1D2"/>
<path d="M97.502 113.011V120.794C98.9065 121.809 100.052 122.599 100.311 122.749C102.085 123.652 105.19 125.306 108.627 127.224C115.687 131.172 124.151 136.285 125.259 138.767C126.738 142.151 122.968 147.452 121.157 149.671C120.713 150.235 120.824 151.062 121.416 151.476C121.452 151.513 121.489 151.513 121.526 151.551C130.323 157.717 134.5 158.92 135.867 159.184C136.2 159.259 136.532 159.184 136.791 158.958C139.933 156.702 148.582 150.46 155.345 145.572C160.335 141.963 164.327 139.068 164.327 139.068C164.327 139.068 169.76 135.571 175.822 132.412C178.779 130.871 181.883 129.442 184.581 128.54C190.865 126.472 196.557 123.426 198.922 122.073C199.587 121.697 199.735 120.832 199.292 120.23C195.854 115.681 188.869 112.973 186.91 112.259C186.577 112.146 186.245 112.184 185.912 112.334C183.953 113.425 176.043 117.41 171.349 114.665C168.208 112.823 158.228 106.807 150.43 102.069C145.81 99.287 141.966 96.9182 140.746 96.2039C140.598 96.0911 136.532 93.7223 133.428 91.9551L105.412 108.386L97.502 113.011Z" fill="#E9A83F"/>
<path d="M135.683 158.319C134.057 157.83 126.517 155.348 122.119 151.099C121.971 150.949 122.008 150.686 122.192 150.611C122.969 150.235 125.223 149.671 129.696 151.927C131.95 153.055 136.422 155.311 136.053 158.055C136.016 158.281 135.831 158.394 135.683 158.319Z" fill="#D18635"/>
<path d="M153.126 147.339C159.335 142.827 164.288 139.255 164.288 139.255C164.288 139.255 171.015 134.894 178.518 131.021C176.411 130.269 158.522 124.103 152.387 134.405C149.023 140.083 150.723 144.444 153.126 147.339Z" fill="#EEC08B"/>
<path d="M155.345 145.497C160.334 141.887 164.326 138.992 164.326 138.992C164.326 138.992 169.759 135.496 175.821 132.337C174.121 131.736 159.706 126.772 154.753 135.044C152.055 139.631 153.423 143.166 155.345 145.497Z" fill="#D18635"/>
<path d="M45.7945 103.874V87.4806L36.9609 92.8198V108.988L45.7945 103.874Z" fill="#E2F7F4"/>
<path d="M36.9614 108.988L33.6719 107.07L33.7828 90.9774L36.9614 92.8197V108.988Z" fill="#DFF2EF"/>
<path d="M44.6872 95.7525L44.835 103.611L37.1842 107.935L34.486 106.318L34.4121 99.4749L42.6913 94.6997L44.6872 95.7525Z" fill="#60A8E9"/>
<path d="M45.7954 87.4806L36.9618 92.8198L33.7832 90.9774L42.7646 85.7134L45.7954 87.4806Z" fill="#F2FFFB"/>
<path d="M39.9926 89.6989C40.7478 89.6989 41.3601 89.3286 41.3601 88.8717C41.3601 88.4149 40.7478 88.0446 39.9926 88.0446C39.2373 88.0446 38.625 88.4149 38.625 88.8717C38.625 89.3286 39.2373 89.6989 39.9926 89.6989Z" fill="#E2F7F4"/>
<path d="M51.3746 107.521V91.1279L42.541 96.4671V112.635L51.3746 107.521Z" fill="#E2F7F4"/>
<path d="M42.5414 112.635L39.252 110.68L39.3628 94.6246L42.5414 96.467V112.635Z" fill="#DFF2EF"/>
<path d="M50.2672 99.3998L50.4151 107.258L42.7642 111.582L40.0661 109.965L39.9922 103.122L48.2714 98.347L50.2672 99.3998Z" fill="#C90187"/>
<path d="M51.3756 91.1279L42.5419 96.467L39.3633 94.6247L48.3448 89.3607L51.3756 91.1279Z" fill="#F2FFFB"/>
<path d="M45.5726 93.3463C46.3279 93.3463 46.9401 92.976 46.9401 92.5191C46.9401 92.0623 46.3279 91.6919 45.5726 91.6919C44.8173 91.6919 44.2051 92.0623 44.2051 92.5191C44.2051 92.976 44.8173 93.3463 45.5726 93.3463Z" fill="#E2F7F4"/>
<path d="M76.1021 106.619L73.0713 104.852L64.0898 110.116L67.2684 111.921L76.1021 106.619Z" fill="#E2F7F4"/>
<path d="M57.6208 111.244V94.8502L48.8242 100.152V116.357L57.6208 111.244Z" fill="#E2F7F4"/>
<path d="M48.8246 116.357L45.498 114.402L45.6459 98.3469L48.8246 100.152V116.357Z" fill="#DFF2EF"/>
<path d="M56.5114 103.122L56.6592 110.943L49.0085 115.305L46.3474 113.688L46.2734 106.807L54.5155 102.069L56.5114 103.122Z" fill="#FAF139"/>
<path d="M57.6218 94.8502L48.8251 100.152L45.6465 98.347L54.591 93.0454L57.6218 94.8502Z" fill="#F2FFFB"/>
<path d="M51.8558 97.0685C52.6111 97.0685 53.2233 96.6982 53.2233 96.2413C53.2233 95.7845 52.6111 95.4141 51.8558 95.4141C51.1005 95.4141 50.4883 95.7845 50.4883 96.2413C50.4883 96.6982 51.1005 97.0685 51.8558 97.0685Z" fill="#E2F7F4"/>
<path d="M63.6072 114.891V98.4973L54.8105 103.799V120.004L63.6072 114.891Z" fill="#E2F7F4"/>
<path d="M54.811 120.004L51.4844 118.049L51.6322 101.994L54.811 103.799V120.004Z" fill="#DFF2EF"/>
<path d="M62.5348 106.769L62.6457 114.59L54.9948 118.952L52.3337 117.335L52.2598 110.454L60.502 105.717L62.5348 106.769Z" fill="#272425"/>
<path d="M63.608 98.4974L54.8114 103.799L51.6328 101.994L60.5773 96.6926L63.608 98.4974Z" fill="#F2FFFB"/>
<path d="M57.8421 100.716C58.5974 100.716 59.2097 100.345 59.2097 99.8886C59.2097 99.4317 58.5974 99.0614 57.8421 99.0614C57.0869 99.0614 56.4746 99.4317 56.4746 99.8886C56.4746 100.345 57.0869 100.716 57.8421 100.716Z" fill="#E2F7F4"/>
<path d="M70.113 119.29V102.896L61.2793 108.236V124.404L70.113 119.29Z" fill="#E2F7F4"/>
<path d="M61.2798 124.404L57.9902 122.486L58.1011 106.393L61.2798 108.236V124.404Z" fill="#DFF2EF"/>
<path d="M69.0036 111.169L69.1145 119.027L61.5006 123.351L58.8024 121.734L58.7285 114.891L67.0077 110.116L69.0036 111.169Z" fill="#75CEC8"/>
<path d="M70.1138 102.897L61.2802 108.236L58.1016 106.393L67.083 101.129L70.1138 102.897Z" fill="#F2FFFB"/>
<path d="M64.3109 105.115C65.0661 105.115 65.6783 104.745 65.6783 104.288C65.6783 103.831 65.0661 103.461 64.3109 103.461C63.5556 103.461 62.9434 103.831 62.9434 104.288C62.9434 104.745 63.5556 105.115 64.3109 105.115Z" fill="#E2F7F4"/>
<path d="M76.1012 123.012V106.619L67.2676 111.92V128.126L76.1012 123.012Z" fill="#E2F7F4"/>
<path d="M67.2679 128.126L63.9785 126.171L64.0894 110.116L67.2679 111.921V128.126Z" fill="#DFF2EF"/>
<path d="M74.9919 114.891L75.1397 122.712L67.4889 127.073L64.7907 125.456L64.7168 118.576L72.996 113.838L74.9919 114.891Z" fill="#5FA6A5"/>
<path d="M76.1022 106.619L67.2685 111.921L64.0898 110.116L73.0714 104.852L76.1022 106.619Z" fill="#F2FFFB"/>
<path d="M70.2992 108.837C71.0544 108.837 71.6667 108.467 71.6667 108.01C71.6667 107.553 71.0544 107.183 70.2992 107.183C69.5439 107.183 68.9316 107.553 68.9316 108.01C68.9316 108.467 69.5439 108.837 70.2992 108.837Z" fill="#E2F7F4"/>
<path d="M79.7613 118.726L68.0078 125.607L68.0817 130.269L79.8722 123.351L79.7613 118.726Z" fill="#DFF2EF"/>
<path d="M68.0064 125.607L26.9432 101.618L26.9062 106.093L68.0803 130.269L68.0064 125.607Z" fill="#DFF2EF"/>
<path d="M78.5771 102.821L43.4274 82.0663L43.3535 84.5479L78.5032 104.927L78.5771 102.821Z" fill="#ABBAB8"/>
<path d="M71.0375 107.822C71.555 106.92 73.0334 104.927 76.6556 103.649C76.9883 103.536 77.1731 103.16 77.0622 102.821V102.784C76.9513 102.408 76.5447 102.22 76.2121 102.333C72.2572 103.761 70.557 105.98 69.8917 107.145C69.67 107.521 69.8548 107.973 70.2614 108.123H70.2983C70.557 108.236 70.8897 108.085 71.0375 107.822Z" fill="#2E5276"/>
<path d="M65.0492 104.363C65.5667 103.461 67.0451 101.468 70.6673 100.189C70.9999 100.077 71.1847 99.7006 71.0738 99.3623V99.3247C70.963 98.9487 70.5564 98.7607 70.2237 98.8735C66.2689 100.302 64.5688 102.521 63.9035 103.686C63.6817 104.062 63.8665 104.513 64.2731 104.664H64.31C64.5687 104.777 64.9014 104.664 65.0492 104.363Z" fill="#2E5276"/>
<path d="M58.3598 99.9638C58.8773 99.0614 60.3557 97.0687 63.9778 95.7903C64.3105 95.6775 64.4953 95.3015 64.3844 94.9631V94.9255C64.2735 94.5495 63.8669 94.3615 63.5343 94.4743C59.5795 95.9031 57.8793 98.1215 57.214 99.287C56.9922 99.663 57.177 100.114 57.5836 100.265H57.6206C57.8793 100.377 58.212 100.227 58.3598 99.9638Z" fill="#2E5276"/>
<path d="M52.1137 96.4671C52.6311 95.5647 54.1096 93.5719 57.7317 92.2935C58.0643 92.1807 58.2491 91.8047 58.1382 91.4663V91.4287C58.0274 91.0527 57.6208 90.8647 57.2881 90.9775C53.3334 92.4063 51.6332 94.6247 50.9679 95.7903C50.7462 96.1663 50.931 96.6175 51.3375 96.7679H51.3745C51.6332 96.8807 51.9658 96.7303 52.1137 96.4671Z" fill="#2E5276"/>
<path d="M45.9789 92.9702C46.4964 92.0679 47.9748 90.0751 51.597 88.7967C51.9296 88.6839 52.1144 88.3079 52.0035 87.9695V87.9319C51.8926 87.5559 51.4861 87.3679 51.1534 87.4807C47.1986 88.9095 45.4984 91.1279 44.8332 92.2934C44.6114 92.6694 44.7962 93.1206 45.2028 93.271H45.2397C45.4985 93.3838 45.8311 93.2334 45.9789 92.9702Z" fill="#2E5276"/>
<path d="M40.2485 89.1727C40.7659 88.2703 42.2443 86.2775 45.8664 84.9991C46.1991 84.8863 46.3839 84.5103 46.273 84.1719V84.1343C46.1621 83.7583 45.7556 83.5703 45.4229 83.6831C41.4682 85.1119 39.768 87.3303 39.1027 88.4959C38.8809 88.8719 39.0657 89.3231 39.4723 89.4735H39.5093C39.768 89.5863 40.1006 89.4735 40.2485 89.1727Z" fill="#2E5276"/>
<path d="M89.407 105.792C89.8356 105.792 90.1831 105.27 90.1831 104.626C90.1831 103.982 89.8356 103.461 89.407 103.461C88.9784 103.461 88.6309 103.982 88.6309 104.626C88.6309 105.27 88.9784 105.792 89.407 105.792Z" fill="#5F6384"/>
<path d="M89.7039 133.014C90.1326 133.014 90.4801 132.492 90.4801 131.848C90.4801 131.205 90.1326 130.683 89.7039 130.683C89.2752 130.683 88.9277 131.205 88.9277 131.848C88.9277 132.492 89.2752 133.014 89.7039 133.014Z" fill="#5F6384"/>
<path d="M125.852 107.822L129.363 105.754L131.839 101.656L132.874 102.257L131.617 104.175C131.285 104.701 130.989 105.115 130.619 105.604H130.656C131.396 105.416 132.172 105.228 133.096 105.04L136.385 104.288L137.42 104.889L130.287 106.281L126.776 108.349L125.852 107.822Z" fill="white"/>
<path d="M139.934 111.168C137.088 112.823 134.094 112.86 132.283 111.77C130.398 110.68 130.767 108.875 133.244 107.408C135.868 105.867 138.973 105.679 140.895 106.807C142.854 107.972 142.373 109.702 139.934 111.168ZM134.279 107.972C132.505 109.025 131.765 110.416 133.207 111.281C134.685 112.146 137.051 111.695 138.936 110.604C140.562 109.627 141.56 108.198 140.008 107.296C138.455 106.393 136.09 106.92 134.279 107.972Z" fill="white"/>
<path d="M146.106 110.041L141.227 112.898C139.379 113.989 139.305 114.853 140.266 115.417C141.338 116.057 142.817 115.981 144.628 114.891L149.506 112.033L150.43 112.597L145.626 115.417C143.075 116.921 140.895 116.846 139.342 115.944C137.864 115.079 137.753 113.876 140.303 112.372L145.182 109.514L146.106 110.041Z" fill="white"/>
<path d="M151.946 113.575C152.537 113.8 153.24 114.139 153.905 114.515C154.903 115.079 155.309 115.605 155.309 116.132C155.309 116.545 154.94 116.996 154.311 117.372C153.24 118.012 151.909 118.087 150.874 117.824L150.837 117.861C151.17 118.312 150.911 118.839 150.209 119.44C149.285 120.268 148.656 120.832 148.509 121.095L147.548 120.531C147.658 120.343 148.213 119.816 149.026 119.102C149.95 118.312 149.987 117.824 149.211 117.335L148.324 116.808L144.738 118.914L143.814 118.388L151.946 113.575ZM149.1 116.32L150.061 116.884C151.059 117.448 152.316 117.448 153.24 116.921C154.311 116.282 154.09 115.643 153.129 115.041C152.685 114.778 152.316 114.628 152.131 114.552L149.1 116.32Z" fill="white"/>
<path d="M113.395 108.198C114.06 108.461 114.799 108.837 115.539 109.251C116.869 110.041 117.461 110.793 117.387 111.545C117.35 112.297 116.758 113.086 115.428 113.876C114.097 114.665 112.619 115.116 111.177 115.154C109.736 115.229 108.22 114.816 106.816 113.989C106.151 113.613 105.633 113.274 105.227 112.936L113.395 108.198ZM107.001 113.049C107.185 113.199 107.518 113.425 107.888 113.65C109.847 114.816 112.212 114.703 114.43 113.387C116.389 112.259 116.684 110.981 114.726 109.815C114.245 109.552 113.838 109.364 113.543 109.251L107.001 113.049Z" fill="white"/>
<path d="M119.899 117.034L117.127 115.417L114.133 117.147L117.238 118.952L116.351 119.478L112.322 117.109L120.565 112.259L124.408 114.515L123.521 115.041L120.601 113.312L117.977 114.891L120.749 116.508L119.899 117.034Z" fill="white"/>
<path d="M118.718 119.365C118.829 119.779 119.199 120.268 119.827 120.644C120.788 121.208 121.897 121.17 122.747 120.681C123.523 120.23 123.56 119.741 123.043 118.914C122.34 117.937 122.34 117.109 123.486 116.433C124.78 115.681 126.665 115.643 128.032 116.47C128.772 116.884 129.104 117.335 129.215 117.636L128.106 118.012C128.032 117.786 127.774 117.373 127.145 116.997C126.184 116.433 125.112 116.583 124.558 116.921C123.782 117.373 123.856 117.861 124.373 118.688C125.038 119.704 125.002 120.456 123.782 121.17C122.525 121.922 120.603 122.072 118.903 121.095C118.201 120.681 117.683 120.117 117.609 119.704L118.718 119.365Z" fill="white"/>
<path d="M131.949 118.952L123.707 123.802L122.783 123.276L131.025 118.425L131.949 118.952Z" fill="white"/>
<path d="M131.098 127.75C130.507 127.6 129.398 127.299 128.437 126.735C127.365 126.096 126.774 125.381 126.848 124.516C126.922 123.764 127.624 122.9 128.918 122.11C131.394 120.681 134.647 120.456 137.049 121.884C137.862 122.373 138.306 122.862 138.454 123.163L137.345 123.539C137.16 123.2 136.827 122.824 136.125 122.411C134.388 121.396 131.986 121.471 129.916 122.674C127.809 123.915 127.661 125.268 129.324 126.246C129.916 126.584 130.433 126.772 130.766 126.848L133.242 125.419L131.801 124.554L132.651 124.065L135.016 125.456L131.098 127.75Z" fill="white"/>
<path d="M132.135 128.765L140.377 123.915L141.375 124.516L139.49 128.314C139.046 129.179 138.603 129.931 138.085 130.645H138.122C139.157 129.931 140.118 129.329 141.412 128.577L144.849 126.547L145.736 127.073L137.494 131.924L136.57 131.36L138.492 127.562C138.899 126.735 139.379 125.908 139.897 125.156H139.86C138.862 125.795 137.901 126.396 136.533 127.186L133.022 129.254L132.135 128.765Z" fill="white"/>
<path d="M140.783 96.1663L99.2392 121.997L97.5391 120.493V112.936L133.539 91.8047L140.783 96.1663Z" fill="#CACACA"/>
<path d="M56.3281 155.875C56.0693 153.431 52.7059 151.513 48.6033 151.513C44.3158 151.513 40.8415 153.581 40.8415 156.138V168.809C40.7676 169.035 40.7676 169.26 40.7676 169.524C40.7676 172.08 44.2419 174.148 48.5293 174.148C52.8168 174.148 56.2911 172.08 56.2911 169.524L56.3281 155.875Z" fill="#7D86AD"/>
<path d="M48.5678 160.951C52.9361 160.951 56.4774 158.83 56.4774 156.213C56.4774 153.597 52.9361 151.476 48.5678 151.476C44.1995 151.476 40.6582 153.597 40.6582 156.213C40.6582 158.83 44.1995 160.951 48.5678 160.951Z" fill="#DBF5F9"/>
<path d="M48.5663 160.311C52.3427 160.311 55.4041 158.476 55.4041 156.213C55.4041 153.95 52.3427 152.115 48.5663 152.115C44.7899 152.115 41.7285 153.95 41.7285 156.213C41.7285 158.476 44.7899 160.311 48.5663 160.311Z" fill="#F9ED32"/>
<path d="M48.5302 163.395V168.208C48.5302 168.208 42.6166 168.621 40.6208 164.448L40.5469 159.033C40.5469 159.033 41.4709 162.38 48.2345 163.545L48.5302 163.395Z" fill="white"/>
<path d="M52.5215 159.559C52.5215 159.559 50.7474 160.199 50.4887 161.515C50.2299 162.831 51.3757 163.959 50.8952 165.049C50.4147 166.177 49.195 165.801 49.3798 164.485C49.6016 163.169 49.6016 161.214 48.4189 161.703C47.2731 162.191 48.1971 162.68 47.1992 163.019C46.2012 163.357 47.0513 161.139 45.2033 160.988C43.3553 160.838 42.2095 157.943 41.9878 156.401C41.766 154.897 52.5215 159.559 52.5215 159.559Z" fill="#F9ED32"/>
<path d="M55.7738 159.334C55.7738 159.296 56.4761 156.589 56.2174 153.506C55.9217 149.408 54.1106 146.588 51.0429 145.347C49.1579 144.595 47.5316 144.632 46.1641 145.46C42.9485 147.415 42.3202 152.942 42.2832 153.168L42.6528 153.205C42.6528 153.168 43.3181 147.64 46.3489 145.76C47.6425 144.971 49.1579 144.971 50.932 145.685C53.8888 146.888 55.5521 149.558 55.8847 153.544C56.1065 156.552 55.4412 159.221 55.4412 159.259L55.7738 159.334Z" fill="#184863"/>
<path d="M76.4706 167.831C76.2119 165.387 72.8485 163.47 68.7458 163.47C64.4584 163.47 60.9841 165.538 60.9841 168.095V180.766C60.9102 180.991 60.9102 181.217 60.9102 181.48C60.9102 184.037 64.3845 186.105 68.6719 186.105C72.9594 186.105 76.4337 184.037 76.4337 181.48L76.4706 167.831Z" fill="#7D86AD"/>
<path d="M68.7104 172.908C73.0787 172.908 76.6199 170.786 76.6199 168.17C76.6199 165.553 73.0787 163.432 68.7104 163.432C64.342 163.432 60.8008 165.553 60.8008 168.17C60.8008 170.786 64.342 172.908 68.7104 172.908Z" fill="#DBF5F9"/>
<path d="M68.7088 172.268C72.4852 172.268 75.5466 170.434 75.5466 168.17C75.5466 165.907 72.4852 164.072 68.7088 164.072C64.9325 164.072 61.8711 165.907 61.8711 168.17C61.8711 170.434 64.9325 172.268 68.7088 172.268Z" fill="#272525"/>
<path d="M68.673 175.389V180.202C68.673 180.202 62.7593 180.616 60.7634 176.442L60.6895 171.028C60.6895 171.028 61.6135 174.374 68.3773 175.54L68.673 175.389Z" fill="white"/>
<path d="M72.6661 171.516C72.6661 171.516 70.892 172.155 70.6332 173.471C70.3745 174.787 71.5203 175.915 71.0398 177.006C70.5593 178.134 69.3396 177.758 69.5244 176.442C69.7462 175.126 69.7462 173.171 68.5634 173.659C67.4177 174.148 68.3417 174.637 67.3437 174.975C66.3088 175.314 67.1959 173.095 65.3478 172.945C63.4998 172.795 62.3541 169.899 62.1323 168.358C61.9105 166.854 72.6661 171.516 72.6661 171.516Z" fill="#272525"/>
<path d="M75.9164 171.291C75.9164 171.253 76.6187 168.546 76.3599 165.463C76.0643 161.364 74.2532 158.544 71.1855 157.303C69.3005 156.551 67.6742 156.589 66.3066 157.416C63.0911 159.372 62.4627 164.899 62.4258 165.124L62.7954 165.162C62.7954 165.124 63.4607 159.597 66.4914 157.717C67.7851 156.927 69.3004 156.928 71.0746 157.642C74.0314 158.845 75.6946 161.515 76.0273 165.5C76.249 168.508 75.5837 171.178 75.5837 171.216L75.9164 171.291Z" fill="#184863"/>
<path d="M15.7831 133.277C15.5244 130.833 12.1609 128.916 8.0583 128.916C3.77086 128.916 0.29656 130.984 0.29656 133.54V146.211C0.222638 146.437 0.222656 146.663 0.222656 146.926C0.222656 149.483 3.69696 151.551 7.98439 151.551C12.2718 151.551 15.7461 149.483 15.7461 146.926L15.7831 133.277Z" fill="#7D86AD"/>
<path d="M8.0209 138.316C12.3892 138.316 15.9305 136.194 15.9305 133.578C15.9305 130.961 12.3892 128.84 8.0209 128.84C3.65257 128.84 0.111328 130.961 0.111328 133.578C0.111328 136.194 3.65257 138.316 8.0209 138.316Z" fill="#DBF5F9"/>
<path d="M8.02133 137.676C11.7977 137.676 14.8591 135.841 14.8591 133.578C14.8591 131.315 11.7977 129.48 8.02133 129.48C4.24495 129.48 1.18359 131.315 1.18359 133.578C1.18359 135.841 4.24495 137.676 8.02133 137.676Z" fill="#00ACEC"/>
<path d="M7.98352 140.797V145.61C7.98352 145.61 2.0698 146.023 0.0739259 141.85L0 136.435C0 136.435 0.924013 139.782 7.68782 140.947L7.98352 140.797Z" fill="white"/>
<path d="M11.9755 136.924C11.9755 136.924 10.2014 137.564 9.9427 138.88C9.68398 140.196 10.8297 141.324 10.3493 142.414C9.86877 143.542 8.64909 143.166 8.83389 141.85C9.05565 140.534 9.05564 138.579 7.87291 139.068C6.72714 139.556 7.65115 140.045 6.65322 140.384C5.61833 140.722 6.50539 138.504 4.65737 138.353C2.80935 138.203 1.66358 135.308 1.44182 133.766C1.25701 132.262 11.9755 136.924 11.9755 136.924Z" fill="#00ACEC"/>
<path d="M15.2642 136.736C15.2642 136.699 15.9664 133.992 15.7077 130.908C15.412 126.81 13.6009 123.99 10.5332 122.749C8.64818 121.997 7.02189 122.035 5.65434 122.862C2.43873 124.817 1.8104 130.344 1.77344 130.57L2.14305 130.608C2.14305 130.57 2.80834 125.043 5.83914 123.163C7.13277 122.373 8.64818 122.373 10.4223 123.088C13.3792 124.291 15.0424 126.96 15.3751 130.946C15.5968 133.954 14.9315 136.624 14.9315 136.661L15.2642 136.736Z" fill="#184863"/>
<path d="M35.9277 145.234C35.669 142.79 32.3056 140.872 28.2029 140.872C23.9154 140.872 20.4411 142.94 20.4411 145.497V158.168C20.3672 158.394 20.3672 158.619 20.3672 158.883C20.3672 161.439 23.8415 163.507 28.129 163.507C32.4165 163.507 35.8908 161.439 35.8908 158.883L35.9277 145.234Z" fill="#7D86AD"/>
<path d="M28.1654 150.272C32.5337 150.272 36.075 148.151 36.075 145.535C36.075 142.918 32.5337 140.797 28.1654 140.797C23.7971 140.797 20.2559 142.918 20.2559 145.535C20.2559 148.151 23.7971 150.272 28.1654 150.272Z" fill="#DBF5F9"/>
<path d="M28.1639 149.633C31.9403 149.633 35.0016 147.798 35.0016 145.535C35.0016 143.271 31.9403 141.436 28.1639 141.436C24.3875 141.436 21.3262 143.271 21.3262 145.535C21.3262 147.798 24.3875 149.633 28.1639 149.633Z" fill="#CA0088"/>
<path d="M28.1281 152.754V157.567C28.1281 157.567 22.2143 157.98 20.2185 153.807L20.1445 148.392C20.1445 148.392 21.0685 151.739 27.8323 152.904L28.1281 152.754Z" fill="white"/>
<path d="M32.1191 148.919C32.1191 148.919 30.345 149.558 30.0863 150.874C29.8276 152.19 30.9734 153.318 30.4929 154.408C30.0124 155.536 28.7927 155.16 28.9775 153.844C29.1993 152.528 29.1993 150.573 28.0165 151.062C26.8707 151.551 27.7948 152.039 26.7968 152.378C25.7619 152.716 26.649 150.498 24.801 150.347C22.953 150.197 21.8072 147.302 21.5854 145.76C21.3637 144.256 32.1191 148.919 32.1191 148.919Z" fill="#CA0088"/>
<path d="M35.3716 148.693C35.3716 148.656 36.0739 145.948 35.8151 142.865C35.5194 138.767 33.7084 135.947 30.6406 134.706C28.7556 133.954 27.1293 133.992 25.7618 134.819C22.5462 136.774 21.9178 142.301 21.8809 142.527L22.2505 142.564C22.2505 142.527 22.9158 137 25.9466 135.12C27.2402 134.33 28.7556 134.33 30.5297 135.044C33.4866 136.248 35.1498 138.917 35.4825 142.903C35.7042 145.911 35.0389 148.58 35.0389 148.618L35.3716 148.693Z" fill="#184863"/>
</svg>
