<svg width="193" height="193" viewBox="0 0 193 193" fill="none" xmlns="http://www.w3.org/2000/svg">
<g opacity="0.7">
<path opacity="0.7" d="M111.14 110.558L145.212 130.576L79.7983 168.987L45.7266 149.006L111.14 110.558Z" fill="#B5BDBF"/>
</g>
<path d="M176.021 119.575L160.244 111.388L165.456 107.059L175.809 112.758C176.27 115.319 176.376 117.627 176.021 119.575Z" fill="#3C434A"/>
<path d="M169.747 111.748L171.129 111.856C169.924 110.991 168.01 110.197 167.478 109.981C167.442 109.981 167.442 109.981 167.407 109.945C167.371 109.909 167.336 109.909 167.336 109.909C165.457 109.224 163.081 109.584 160.458 111.099C154.395 114.67 149.467 123.326 149.467 130.431C149.467 133.713 150.53 136.094 152.232 137.356C153.899 138.582 155.636 139.412 156.912 139.773C156.451 139.448 156.061 138.943 155.778 138.402C157.196 138.366 158.791 137.897 160.458 136.887C166.52 133.317 171.449 124.66 171.449 117.519C171.378 115.066 170.775 113.083 169.747 111.748Z" fill="#434244"/>
<path d="M163.436 112.686C169.499 109.115 174.427 112.001 174.427 119.142C174.427 126.283 169.499 134.94 163.436 138.474C157.373 142.045 152.445 139.16 152.445 132.018C152.445 124.913 157.373 116.257 163.436 112.686Z" fill="#59595B"/>
<path d="M163.436 120.044C166.06 118.529 168.151 119.755 168.151 122.821C168.151 125.887 166.024 129.602 163.436 131.153C160.813 132.703 158.721 131.441 158.721 128.375C158.721 125.31 160.848 121.559 163.436 120.044Z" fill="white"/>
<path d="M165.422 119.395C165.705 119.936 165.882 120.657 165.882 121.487C165.882 124.552 163.755 128.267 161.167 129.782C160.458 130.215 159.784 130.395 159.182 130.431C159.926 131.874 161.557 132.199 163.436 131.117C166.024 129.602 168.151 125.851 168.151 122.785C168.151 120.585 167.017 119.322 165.422 119.395Z" fill="#919395"/>
<path d="M90.5059 162.856V169.817L151.452 134.002C151.204 133.064 151.062 131.982 151.062 130.792C151.062 129.566 151.204 128.339 151.488 127.077L90.5059 162.856ZM174.32 113.624C175.384 114.994 176.022 116.942 176.022 119.467C176.022 119.503 176.022 119.539 176.022 119.575L192.296 110.017V103.092L174.32 113.624Z" fill="#58616C"/>
<path d="M161.947 111.568C165.953 108.394 172.477 109.837 174.32 113.624L192.296 103.056L138.511 72.8315L36.6504 132.812L91.3921 163.469L151.381 127.077C152.728 120.91 156.947 114.526 161.947 111.568Z" fill="#3C434A"/>
<path d="M87.8113 171.404L76.1113 165.597V118.962L87.8113 112.109V171.404Z" fill="#3C434A"/>
<path d="M81.2877 163.685L82.6704 163.794C81.4295 162.928 79.5504 162.135 78.9831 161.918C78.9477 161.918 78.9477 161.882 78.9123 161.882C78.8413 161.846 78.8413 161.846 78.8413 161.846C76.9622 161.161 74.5868 161.521 71.9987 163.036C65.936 166.607 61.0078 175.263 61.0078 182.368C61.0078 185.651 62.0714 188.031 63.7732 189.293C65.4396 190.52 67.1769 191.349 68.4532 191.71C67.9923 191.385 67.6023 190.844 67.3187 190.339C68.7368 190.303 70.3323 189.834 71.9987 188.825C78.0613 185.254 82.9895 176.598 82.9895 169.456C82.954 167.04 82.3159 165.056 81.2877 163.685Z" fill="#434244"/>
<path d="M74.9772 164.659C81.04 161.089 85.9681 163.974 85.9681 171.115C85.9681 178.257 81.04 186.913 74.9772 190.448C68.9145 194.018 63.9863 191.133 63.9863 183.991C64.0218 176.886 68.9145 168.194 74.9772 164.659Z" fill="#59595B"/>
<path d="M74.9771 171.981C77.6007 170.466 79.6925 171.693 79.6925 174.758C79.6925 177.824 77.5652 181.539 74.9771 183.09C72.3889 184.605 70.2617 183.378 70.2617 180.313C70.2617 177.247 72.3889 173.532 74.9771 171.981Z" fill="white"/>
<path d="M76.9627 171.368C77.2463 171.909 77.4235 172.63 77.4235 173.46C77.4235 176.526 75.2963 180.24 72.7081 181.791C71.999 182.188 71.3254 182.405 70.7227 182.441C71.4672 183.883 73.0981 184.208 74.9772 183.126C77.6008 181.611 79.6926 177.86 79.6926 174.794C79.6926 172.522 78.5936 171.26 76.9627 171.368Z" fill="#919395"/>
<path d="M95.469 93.8228V161.053L36.8984 128.339V59.4144L95.469 93.8228Z" fill="#A5A6A9"/>
<path d="M38.9898 80.2614L10.9453 96.8163L62.3188 127.077L90.5051 110.522L38.9898 80.2614Z" fill="#EDBB6B"/>
<path d="M10.9457 96.8165L3.00391 125.238L54.5191 155.498L62.3191 127.077L10.9457 96.8165Z" fill="#A46D33"/>
<path d="M12.5046 97.8984L4.98828 124.733L53.5964 153.262L60.9709 126.464L12.5046 97.8984Z" fill="#79ACC6"/>
<path d="M0.451172 129.097V162.207L51.9666 192.467V159.357L0.451172 129.097Z" fill="#E7AD4B"/>
<path d="M62.3195 127.077L54.5195 155.498L51.9668 159.357V192.467L65.8649 184.316C65.9358 177.211 70.8285 168.699 76.8558 165.164C82.8476 161.63 87.7403 164.443 87.8112 171.44L90.5057 169.853V110.522L62.3195 127.077Z" fill="#BD7D34"/>
<path d="M3.00387 125.238L0.451172 129.097L51.9665 159.357L54.5192 155.498L3.00387 125.238Z" fill="#EDBB6B"/>
<path d="M64.4118 127.762L57.25 153.262L89.3715 135.3V113.48L64.4118 127.762Z" fill="#79ACC6"/>
<path d="M35.6934 167.941V174.181L47.9252 181.359V175.119L35.6934 167.941Z" fill="white"/>
<path d="M3.00391 150.052V156.292L15.2357 163.469V157.229L3.00391 150.052Z" fill="white"/>
<path d="M192.544 36.8001L95.4336 93.8228V161.053L151.168 128.303C153.898 115.644 166.059 103.128 174.781 114.345L192.544 104.21V36.8001Z" fill="#CFD1D2"/>
<path d="M95.4321 93.8588L192.506 36.8361L131.347 0.948975L36.8613 59.4865L95.4321 93.8588Z" fill="#F0F1F1"/>
<path d="M84.1602 154.596V156.183L87.812 154.055V152.432L84.1602 154.596Z" fill="#3C434A"/>
<path d="M51.9668 159.357L90.5057 137.969V135.517L54.5195 155.498L51.9668 159.357Z" fill="#EDBB6B"/>
<path d="M23.7812 104.535L29.6312 139.196L34.9138 142.297L28.7448 107.492L23.7812 104.535Z" fill="#8EC3D5"/>
<path d="M13.498 98.5115L16.9725 131.766L26.545 137.392L21.2624 103.056L13.498 98.5115Z" fill="#8EC3D5"/>
<path d="M117.062 109.476C116.495 109.079 115.573 109.224 114.332 109.945L109.688 112.65V130.503L114.19 127.834C115.502 127.041 116.459 126.067 117.062 124.841C117.665 123.614 117.948 122.1 117.948 120.332L117.913 112.001C117.948 110.738 117.629 109.909 117.062 109.476ZM114.616 123.434C114.616 124.083 114.297 124.588 113.658 124.949C113.587 124.985 113.517 125.021 113.41 125.093C113.304 125.165 113.233 125.201 113.197 125.201C113.127 125.238 113.091 125.274 113.091 125.274V113.84C113.268 113.732 113.41 113.66 113.481 113.588C113.907 113.335 114.226 113.263 114.403 113.407C114.58 113.552 114.651 113.948 114.651 114.598V123.434H114.616Z" fill="#58616C"/>
<path d="M123.834 114.706L126.989 112.83V109.476L123.834 111.352V107.853L127.131 105.905V102.443L120.395 106.41V124.264L127.344 120.188V116.69L123.834 118.746V114.706Z" fill="#58616C"/>
<path d="M132.981 99.0166L129.613 101V118.854L136.42 114.85V111.352L132.981 113.371V99.0166Z" fill="#58616C"/>
<path d="M138.299 113.732L141.561 111.821V93.9671L138.299 95.8787V113.732Z" fill="#58616C"/>
<path d="M147.767 102.154L146.845 90.8654L143.441 92.8491L145.533 109.512L150.107 106.807L152.163 87.7275L148.795 89.7473L147.767 102.154Z" fill="#58616C"/>
<path d="M157.48 94.941L160.635 93.0654V89.7112L157.48 91.5867V88.0881L160.777 86.1405V82.678L154.076 86.6455V104.499L160.99 100.423V96.9247L157.48 98.9805V94.941Z" fill="#58616C"/>
<path d="M171.166 78.5662C171.024 78.1695 170.882 77.917 170.67 77.7727C170.457 77.6285 170.138 77.5924 169.783 77.6285C169.393 77.6646 168.968 77.8449 168.436 78.1695L163.295 81.1992V99.0526L166.699 97.0689V88.9176C166.947 88.7733 167.124 88.6651 167.266 88.6291C167.408 88.5569 167.514 88.5569 167.656 88.5209C167.798 88.5209 167.869 88.593 167.939 88.7012C167.975 88.8455 168.01 89.0619 168.01 89.3143V96.2754L171.272 94.3638C171.308 92.8129 171.308 90.5767 171.308 87.6192C171.308 87.3307 171.272 87.0782 171.272 86.8978C171.237 86.6814 171.166 86.465 171.095 86.2486C171.024 86.0322 170.847 85.8879 170.67 85.8158C170.457 85.7437 170.209 85.7797 169.889 85.8879C170.209 85.5994 170.457 85.2748 170.67 84.9502C170.882 84.6256 171.059 84.301 171.166 84.0124C171.272 83.7239 171.343 83.3993 171.414 83.0747C171.485 82.714 171.52 82.4255 171.52 82.2091C171.52 81.9927 171.52 81.7041 171.52 81.3795C171.52 80.7303 171.485 80.1893 171.449 79.7565C171.379 79.3597 171.308 78.963 171.166 78.5662ZM167.514 85.3469L166.663 85.8519V82.5337L166.84 82.4255C167.372 82.1009 167.727 81.9926 167.904 82.1008C168.081 82.209 168.188 82.6058 168.188 83.3271C168.188 84.4092 167.975 85.0944 167.514 85.3469Z" fill="#58616C"/>
<path d="M181.271 70.6314L177.973 72.5791L177.016 79.1794L176.094 73.6971L172.762 75.6448L175.456 86.0683V91.9112L178.612 90.0717V84.1928L181.271 70.6314Z" fill="#58616C"/>
</svg>
