<svg width="205" height="69" viewBox="0 0 205 69" fill="none" xmlns="http://www.w3.org/2000/svg">
<g id="LOGO">
<g id="Group">
<path id="Vector" d="M91.083 61.422C89.2588 62.0942 87.5866 62.2287 86.0664 61.6909C85.6104 61.5565 85.3064 61.422 85.0023 61.1531C84.6983 60.8843 84.3943 60.6154 84.2423 60.3465C83.9382 59.8088 83.7862 54.2967 83.6342 43.8105C83.4822 33.3242 83.7862 27.9467 84.0902 27.4089C84.6983 26.4678 85.7624 25.9301 87.2826 25.6612C88.9548 25.3923 90.1709 25.6612 91.235 26.4678C91.843 26.8712 92.1471 27.14 92.2991 27.14C92.4511 27.14 92.6031 27.0056 92.9072 26.6023C93.3632 26.0645 94.1233 25.5268 95.3394 25.1234C96.5556 24.7201 97.7717 24.5857 98.9878 24.5857C100.66 24.5857 102.028 24.7201 103.092 25.1234C104.156 25.3923 105.22 25.9301 105.981 26.7367C107.045 27.6778 107.805 29.0222 108.261 30.3666C108.565 31.8454 108.717 33.9964 108.717 37.0885C108.565 39.2396 108.565 40.7184 108.413 41.525C108.261 42.3317 107.957 43.1383 107.501 43.9449C106.893 45.1549 105.981 46.2304 104.916 47.3059C103.852 48.3814 102.636 49.1881 101.42 49.7258C100.812 49.9947 100.052 50.2636 99.2918 50.398C98.5317 50.5325 97.4676 50.6669 95.9475 50.6669L92.1471 50.8013V55.91C92.1471 58.4644 92.1471 59.9432 91.9951 60.3465C91.843 61.0187 91.539 61.2876 91.083 61.422ZM91.9951 41.9284V46.2304L93.0592 46.7682C93.9713 47.1715 94.7314 47.3059 95.3394 47.3059C95.9475 47.3059 96.5555 46.7682 97.1636 46.096C97.9237 45.1549 98.6838 43.9449 99.2918 42.4661C99.5959 41.525 99.8999 40.584 99.8999 39.7773C100.052 38.9707 100.052 37.4919 99.8999 35.4753C99.7479 32.3832 99.4438 30.3666 98.9878 29.5599L98.2277 28.35L97.1636 29.1566C95.3394 30.6355 93.9713 32.652 92.7551 35.3408C92.2991 36.2819 91.9951 37.223 91.9951 38.0296C91.9951 38.8362 91.9951 40.0462 91.9951 41.9284Z" fill="#FCCC12"/>
<path id="Vector_2" d="M135.471 56.3135C135.775 56.5824 135.775 56.7168 135.775 56.8513C135.775 56.9857 135.471 57.2546 135.167 57.5235C134.255 58.3301 132.735 58.599 130.454 58.3301C128.326 58.0612 125.742 57.389 122.854 56.3135L120.573 55.3724L120.877 60.2123L119.357 60.75C117.685 61.4222 116.013 61.4222 114.493 60.75C113.733 60.3467 113.125 60.0778 112.821 59.6745C112.213 59.0023 111.757 56.0446 111.452 50.6671C111.148 45.2895 110.996 40.1808 111.3 35.0721C111.453 31.0389 111.605 28.619 111.909 27.8123C112.213 26.8713 112.517 26.3335 113.277 26.0646C113.581 25.9302 114.493 25.7957 115.861 25.7957C117.685 25.6613 118.901 25.9302 119.357 26.3335C119.965 26.7368 120.117 27.8123 120.269 29.2912V31.7111L121.638 30.0978C122.55 29.0223 123.462 28.3501 124.374 27.9468C125.286 27.5435 126.502 27.409 128.022 27.409C131.215 27.5435 133.343 28.7534 134.255 31.1733C134.711 32.5177 135.015 33.9966 135.015 35.7443C135.015 37.3575 134.863 38.9708 134.407 40.5841C133.951 42.1974 133.343 43.6762 132.583 45.0206C131.823 46.365 130.911 47.575 129.694 48.6505C128.63 49.726 127.414 50.3982 126.046 50.9359C124.83 51.3393 124.222 51.6081 124.222 51.7426C124.222 52.0114 125.134 52.5492 126.958 53.3559C128.782 54.1625 130.302 54.7002 131.671 55.1036C133.799 55.5069 135.015 55.9102 135.471 56.3135ZM119.965 48.2471C120.117 48.3816 120.269 48.3816 120.725 48.2471C121.182 48.1127 121.486 47.7094 122.094 47.1716C122.702 46.6339 123.006 46.2306 123.462 45.5584C124.678 43.9451 125.59 42.0629 126.046 39.9119C126.654 37.7609 126.654 35.7443 126.35 33.8621C126.046 32.3833 125.894 31.5766 125.742 31.5766C125.59 31.3078 125.134 31.5766 124.526 32.2488C123.918 32.921 123.158 33.7277 122.398 34.9376C121.638 36.1476 121.03 37.2231 120.421 38.4331C119.965 39.3741 119.661 40.1808 119.661 40.853C119.509 41.5252 119.509 42.6007 119.661 44.3484C119.813 46.7683 119.813 48.1127 119.965 48.2471Z" fill="#FCCC12"/>
<path id="Vector_3" d="M148.09 22.1664C148.546 22.4353 148.85 22.973 149.002 23.7796C149.154 24.5863 149.002 25.3929 148.698 26.0651C148.394 26.7373 147.634 27.5439 146.57 28.3506C145.506 29.1572 144.441 29.5605 143.529 29.5605C142.617 29.5605 141.401 29.1572 140.033 28.3506C138.969 27.6784 138.361 27.0062 137.905 26.0651C137.449 25.2585 137.449 24.4518 137.601 23.6452C137.753 22.973 138.513 22.4353 139.577 22.1664C140.641 21.8975 141.553 21.8975 142.313 22.4353C142.617 22.7041 143.073 22.5697 143.681 22.3008C144.137 22.0319 144.897 21.8975 145.81 21.8975C146.874 21.7631 147.634 21.8975 148.09 22.1664ZM147.634 37.2236C147.482 40.4501 147.634 45.2899 147.786 51.4741C147.938 56.3139 147.938 59.1372 147.938 59.9438C147.786 61.0193 147.482 61.6915 146.874 61.9604C146.57 62.0948 145.81 62.2293 144.441 62.2293H144.289C143.225 62.2293 142.465 62.2293 142.009 62.0948C141.553 61.9604 141.097 61.826 140.641 61.4226L139.577 60.616L139.273 51.743C138.817 39.7779 138.969 33.3248 139.881 32.3838C140.337 31.9804 141.401 31.7116 143.073 31.5771C144.897 31.4427 146.114 31.5771 146.874 31.9804C147.178 32.1149 147.482 32.3838 147.482 32.5182C147.634 32.6526 147.634 33.1904 147.634 33.8626C147.786 34.6692 147.634 35.7447 147.634 37.2236Z" fill="#FCCC12"/>
<path id="Vector_4" d="M178.188 31.1735C179.1 33.5934 179.556 40.4498 179.404 51.7427C179.404 55.507 179.252 58.0614 179.252 59.1369C179.1 60.2124 178.948 60.8846 178.796 61.019C178.34 61.2879 177.427 61.4224 175.907 61.5568C174.387 61.6912 173.171 61.5568 172.563 61.2879C172.259 61.1535 171.955 61.019 171.651 60.7502C171.347 60.4813 171.195 60.3469 171.195 60.078C171.043 59.5402 171.043 55.3726 170.891 47.4407C170.891 41.6598 170.739 37.6266 170.587 35.3411C170.435 33.0556 169.979 31.4424 169.523 30.5013C169.371 30.2324 169.219 29.9635 169.067 29.9635C168.915 29.9635 168.459 30.3669 168.002 31.3079C167.85 31.4424 167.698 31.7112 167.546 32.1146C166.026 34.5345 164.81 36.8199 164.05 38.971C163.29 41.122 162.682 43.9452 162.378 47.4407C162.074 49.995 161.77 52.0116 161.466 53.356C161.162 54.7004 161.162 56.1792 161.314 57.5236C161.466 58.4647 161.466 59.0025 161.314 59.4058C161.162 59.6747 161.01 60.078 160.554 60.3468C159.946 60.8846 158.882 61.1535 157.513 61.1535C156.145 61.1535 155.081 61.019 154.169 60.4813C153.561 60.078 153.105 59.8091 153.105 59.4058C152.953 59.0025 152.801 58.0614 152.801 56.4481C152.649 54.0282 152.497 48.9195 152.649 40.9876C152.801 33.0556 152.801 28.7536 152.953 28.2158C153.257 27.5436 153.865 27.0059 154.777 26.6025C155.841 26.1992 156.905 26.0648 158.121 26.1992C159.338 26.3337 160.098 26.6025 160.706 27.2747C161.01 27.6781 161.162 27.9469 161.314 28.3503C161.466 28.7536 161.314 29.4258 161.162 30.3668C161.01 31.9801 160.858 32.6523 161.01 32.5179C161.162 32.3834 161.618 31.5768 162.53 30.098C163.442 28.4847 164.506 27.4092 165.57 26.737C166.634 26.0648 168.002 25.6615 169.523 25.6615C171.803 25.527 173.627 25.9303 175.147 26.8714C176.363 27.6781 177.427 29.1569 178.188 31.1735Z" fill="#FCCC12"/>
<path id="Vector_5" d="M192.478 26.4678C195.062 26.4678 197.038 26.6022 198.558 26.6022C200.078 26.6022 201.143 26.7367 202.055 26.8711C202.967 27.0056 203.575 27.14 203.879 27.4089C204.183 27.5433 204.335 27.8122 204.335 28.2155C204.335 28.6188 203.879 29.0222 203.271 29.291C202.511 29.5599 201.295 29.6944 199.47 29.8288L196.43 30.0977L196.126 39.374C195.974 46.096 195.974 51.3391 195.974 55.2379L196.126 61.8254L194.758 62.3632C192.934 63.0354 191.262 62.9009 189.437 62.2287C189.133 62.0943 188.829 61.9598 188.525 61.691C188.221 61.4221 188.069 61.2876 188.069 61.0188C187.917 60.481 187.765 57.5233 187.613 52.1458C187.461 46.9026 187.461 42.1972 187.613 37.8952L187.765 29.8288L186.549 29.5599C185.637 29.4255 184.877 29.291 183.965 29.291C183.357 29.291 182.749 29.1566 182.141 29.0222C181.533 28.8877 181.076 28.7533 180.772 28.4844C180.468 28.2155 180.316 28.0811 180.316 27.8122C180.468 27.2744 181.381 26.8711 183.053 26.7367C184.421 26.4678 187.613 26.3334 192.478 26.4678Z" fill="#FCCC12"/>
</g>
<path id="Vector_6" d="M143.222 30.2331C146.832 30.2331 149.759 27.6449 149.759 24.4522C149.759 21.2595 146.832 18.6713 143.222 18.6713C139.612 18.6713 136.686 21.2595 136.686 24.4522C136.686 27.6449 139.612 30.2331 143.222 30.2331Z" fill="white"/>
<g id="Group_2">
<path id="Vector_7" d="M38.7878 2C18.4177 2 2 16.5195 2 34.5344C2 35.6099 2.00001 36.6854 2.15203 37.7609H6.86451H7.01653H36.6596V63.0355V63.17V67.0687C37.4197 67.0687 38.1798 67.0687 38.9399 67.0687C59.31 67.0687 75.7277 52.5493 75.7277 34.5344C75.5757 16.6539 59.158 2 38.7878 2ZM6.7125 34.5344C6.7125 34.3999 6.7125 34.1311 6.7125 33.9966V35.0721C6.86452 34.9377 6.7125 34.8032 6.7125 34.5344ZM41.0681 63.17V37.7609V33.8622H36.6596H6.86451C7.32056 18.4016 21.61 6.03319 39.2439 6.03319C57.1818 6.03319 71.6233 18.8049 71.6233 34.6688C71.4713 49.8605 57.9418 62.2289 41.0681 63.17Z" fill="#FCCC12" stroke="#FCCC12" stroke-width="2.5273" stroke-miterlimit="10"/>
<path id="Vector_8" d="M38.7886 29.9637C42.3987 29.9637 45.3253 27.3755 45.3253 24.1828C45.3253 20.9901 42.3987 18.4019 38.7886 18.4019C35.1785 18.4019 32.252 20.9901 32.252 24.1828C32.252 27.3755 35.1785 29.9637 38.7886 29.9637Z" fill="white"/>
</g>
<path id="Vector_9" d="M42 33H36V62H42V33Z" fill="white"/>
</g>
</svg>
