<svg width="68" height="66" viewBox="0 0 68 66" fill="none" xmlns="http://www.w3.org/2000/svg">
<path d="M34 0C15.2224 0 0 14.7747 0 33C0 51.2253 15.2224 66 34 66C52.7776 66 68 51.2253 68 33C68 14.7747 52.7776 0 34 0ZM34 7.1704C48.6976 7.1704 60.6082 18.7383 60.6082 33C60.6082 47.2618 48.6976 58.8256 34 58.8256C19.3024 58.8256 7.39183 47.2618 7.39183 33C7.39188 18.7383 19.3024 7.1704 34 7.1704ZM47.0281 17.3298L27.322 36.4603L20.9304 30.2567L14.6592 36.3395L21.0508 42.5431L27.3635 48.6702L33.6306 42.5834L53.3408 23.4569L47.0281 17.3298Z" fill="white"/>
</svg>
