<svg width="67" height="68" viewBox="0 0 67 68" fill="none" xmlns="http://www.w3.org/2000/svg">
<path fill-rule="evenodd" clip-rule="evenodd" d="M0 33.6843C0 15.081 14.9985 0 33.5 0C52.0014 0 67 15.081 67 33.6843C67 52.2876 52.0014 67.3686 33.5 67.3686C14.9985 67.3686 0 52.2876 0 33.6843ZM59.7169 33.6843C59.7169 19.1268 47.9814 7.31909 33.5 7.31909C19.0185 7.31909 7.28318 19.1268 7.28312 33.6843C7.28312 48.2418 19.0185 60.0454 33.5 60.0454C47.9814 60.0454 59.7169 48.2418 59.7169 33.6843ZM43.1937 24.0282V29.2829C45.2707 29.2829 47.3477 31.3848 47.3477 33.837V46.0981C47.3477 48.1999 45.2707 50.3018 42.8476 50.3018H23.8084C21.7314 50.3018 19.6545 48.1999 19.6545 45.7477V33.4867C19.6545 31.3848 21.7314 29.2829 23.8084 29.2829V24.0282C23.8084 19.1237 28.6548 15.2703 33.5011 15.2703C38.3474 15.2703 43.1937 19.1237 43.1937 24.0282ZM28.3086 29.2829H38.6936V24.0282C38.6936 21.2256 36.2704 19.474 33.5011 19.474C30.7318 19.474 28.3086 21.2256 28.3086 24.0282V29.2829Z" fill="white"/>
</svg>
