<svg width="68" height="66" viewBox="0 0 68 66" fill="none" xmlns="http://www.w3.org/2000/svg">
<path d="M34 0C15.2224 0 0 14.7747 0 33C0 51.2253 15.2224 66 34 66C52.7776 66 68 51.2253 68 33C68 14.7747 52.7776 0 34 0ZM34 7.1704C48.6976 7.1704 60.6082 18.7383 60.6082 33C60.6082 47.2618 48.6976 58.8256 34 58.8256C19.3024 58.8256 7.39183 47.2618 7.39183 33C7.39188 18.7383 19.3024 7.1704 34 7.1704Z" fill="white"/>
<path d="M34 0C15.2224 0 0 14.7747 0 33C0 51.2253 15.2224 66 34 66C52.7776 66 68 51.2253 68 33C68 14.7747 52.7776 0 34 0ZM34 7.1704C48.6976 7.1704 60.6082 18.7383 60.6082 33C60.6082 47.2618 48.6976 58.8256 34 58.8256C19.3024 58.8256 7.39183 47.2618 7.39183 33C7.39188 18.7383 19.3024 7.1704 34 7.1704Z" stroke="black"/>
<g clip-path="url(#clip0)">
<path fill-rule="evenodd" clip-rule="evenodd" d="M52.3952 48.3234C52.3952 48.3234 54.7719 48.3234 54.7719 45.8836C54.7719 43.4438 52.3952 36.1243 42.8882 36.1243C33.3813 36.1243 31.0046 43.4438 31.0046 45.8836C31.0046 48.3234 33.3813 48.3234 33.3813 48.3234H52.3952ZM33.4336 45.8836H52.3429C52.354 45.8822 52.3651 45.8806 52.3762 45.8787L52.3952 45.8738C52.3904 45.2297 51.9983 43.3608 50.5889 41.6773C49.2769 40.0988 46.9715 38.5641 42.8882 38.5641C38.8074 38.5641 36.5019 40.1012 35.1876 41.6773C33.7782 43.3608 33.3837 45.2321 33.3813 45.8738C33.3987 45.8773 33.4161 45.8805 33.4336 45.8836ZM42.8882 31.2447C44.1489 31.2447 45.358 30.7306 46.2494 29.8155C47.1409 28.9004 47.6417 27.6592 47.6417 26.3651C47.6417 25.0709 47.1409 23.8298 46.2494 22.9147C45.358 21.9996 44.1489 21.4855 42.8882 21.4855C41.6275 21.4855 40.4185 21.9996 39.527 22.9147C38.6356 23.8298 38.1348 25.0709 38.1348 26.3651C38.1348 27.6592 38.6356 28.9004 39.527 29.8155C40.4185 30.7306 41.6275 31.2447 42.8882 31.2447ZM50.0184 26.3651C50.0184 27.3263 49.834 28.2781 49.4757 29.1661C49.1174 30.0541 48.5922 30.861 47.9301 31.5407C47.268 32.2204 46.4819 32.7595 45.6168 33.1274C44.7518 33.4952 43.8246 33.6845 42.8882 33.6845C41.9519 33.6845 41.0247 33.4952 40.1596 33.1274C39.2945 32.7595 38.5085 32.2204 37.8464 31.5407C37.1843 30.861 36.6591 30.0541 36.3008 29.1661C35.9425 28.2781 35.758 27.3263 35.758 26.3651C35.758 24.4239 36.5092 22.5621 37.8464 21.1895C39.1836 19.8168 40.9972 19.0457 42.8882 19.0457C44.7793 19.0457 46.5929 19.8168 47.9301 21.1895C49.2672 22.5621 50.0184 24.4239 50.0184 26.3651ZM33.2292 36.8075C32.2784 36.5002 31.2984 36.2981 30.3058 36.2048C29.7481 36.1504 29.1881 36.1235 28.6278 36.1243C19.1209 36.1243 16.7441 43.4438 16.7441 45.8836C16.7441 47.5109 17.5356 48.3234 19.1209 48.3234H29.1412C28.7889 47.5617 28.6131 46.7266 28.6278 45.8836C28.6278 43.4194 29.5239 40.9015 31.2185 38.7984C31.796 38.0811 32.4686 37.4101 33.2292 36.8075ZM28.4377 38.5641C24.4733 38.6129 22.2225 40.1256 20.9272 41.6773C19.5083 43.3706 19.1209 45.2468 19.1209 45.8836H26.2511C26.2511 43.334 27.0188 40.7941 28.4377 38.5641ZM20.3092 27.585C20.3092 25.6438 21.0605 23.782 22.3976 22.4094C23.7348 21.0367 25.5484 20.2656 27.4395 20.2656C29.3305 20.2656 31.1441 21.0367 32.4813 22.4094C33.8184 23.782 34.5697 25.6438 34.5697 27.585C34.5697 29.5262 33.8184 31.388 32.4813 32.7606C31.1441 34.1333 29.3305 34.9044 27.4395 34.9044C25.5484 34.9044 23.7348 34.1333 22.3976 32.7606C21.0605 31.388 20.3092 29.5262 20.3092 27.585ZM27.4395 22.7054C26.1788 22.7054 24.9697 23.2195 24.0782 24.1346C23.1868 25.0497 22.686 26.2908 22.686 27.585C22.686 28.8791 23.1868 30.1203 24.0782 31.0354C24.9697 31.9505 26.1788 32.4646 27.4395 32.4646C28.7002 32.4646 29.9092 31.9505 30.8007 31.0354C31.6921 30.1203 32.1929 28.8791 32.1929 27.585C32.1929 26.2908 31.6921 25.0497 30.8007 24.1346C29.9092 23.2195 28.7002 22.7054 27.4395 22.7054Z" fill="white"/>
</g>
<defs>
<clipPath id="clip0">
<rect width="37" height="31" fill="white" transform="translate(17 18)"/>
</clipPath>
</defs>
</svg>
