<svg width="67" height="64" viewBox="0 0 67 64" fill="none" xmlns="http://www.w3.org/2000/svg">
<path fill-rule="evenodd" clip-rule="evenodd" d="M0 31.7368C0 14.2091 14.9985 0 33.5 0C52.0014 0 67 14.2091 67 31.7368C67 49.2644 52.0014 63.4735 33.5 63.4735C14.9985 63.4735 0 49.2644 0 31.7368ZM9.01906 22.8299C11.6768 16.2766 17.1813 11.0597 24.0987 8.54094L27.805 16.884C25.518 17.6735 23.4401 18.9258 21.7161 20.5537C19.992 22.1815 18.6631 24.1458 17.822 26.3098L9.01906 22.8299ZM24.0711 54.9192C17.1674 52.3976 11.6743 47.188 9.01983 40.645L17.822 37.1955C18.6573 39.3538 19.9806 41.3129 21.6993 42.9357C23.418 44.5584 25.4905 45.8055 27.7715 46.5896L24.0711 54.9192ZM57.9703 40.6693C55.3125 47.1999 49.8258 52.3991 42.9321 54.918L39.2955 46.5896C41.5664 45.7925 43.6268 44.5364 45.3334 42.9086C47.0401 41.2808 48.352 39.3204 49.178 37.1637L57.9703 40.6693ZM42.9453 8.55701C49.8318 11.0781 55.3127 16.2751 57.9692 22.8011L49.178 26.2463C48.3389 24.1076 47.0212 22.1663 45.3153 20.5557C43.6094 18.9451 41.5558 17.7033 39.2955 16.9157L42.9453 8.55701ZM23.45 31.7368C23.45 37.0051 27.939 41.2578 33.5 41.2578C39.061 41.2578 43.55 37.0051 43.55 31.7368C43.55 26.4685 39.061 22.2157 33.5 22.2157C27.939 22.2157 23.45 26.4685 23.45 31.7368Z" fill="white"/>
</svg>
